<?xml version="1.0" encoding="utf-8"?>
<!-- Generator: Adobe Illustrator 18.0.0, SVG Export Plug-In . SVG Version: 6.00 Build 0)  -->
<!DOCTYPE svg PUBLIC "-//W3C//DTD SVG 1.1//EN" "http://www.w3.org/Graphics/SVG/1.1/DTD/svg11.dtd">
<svg version="1.1" id="Capa_1" xmlns="http://www.w3.org/2000/svg" xmlns:xlink="http://www.w3.org/1999/xlink" x="0px" y="0px"
	 viewBox="0 0 500 500" enable-background="new 0 0 500 500" xml:space="preserve">
<rect x="-4.1" fill="#333333" width="504.1" height="500"/>
<g>
	<g>
		<g>
			<path fill="#FFFFFF" d="M206.8,338.2c-4.1,0-8.1,0-12.3,0c0,4.2,0,8.2,0,12.2c0,5.3-3.4,9.1-8.6,10c-8,1.4-13-4.5-12.8-10.9
				c0.1-3.7,0-7.4,0-11.2c-26.4,0-52.6,0-79.1,0c0,3.5,0,7,0,10.5c0.1,6.5-3.1,11-10,12c-5.4,0.8-11.3-4.2-11.4-9.8
				c0-4.2,0-8.4,0-12.8c-4.1,0-8.1,0-12.4,0c0-1,0-1.7,0-2.4c0-24.3-0.1-48.6,0.1-72.9c0-4.1,0.9-8.2,1.5-12.3
				c0.5-3.6,0.9-7.2,1.4-10.8c0.6-4.8,1.4-9.6,2-14.4c0.5-3.7,0.8-7.4,1.3-11.1c0.8-5.5,1.2-11.1,4.9-15.8c2.5-3.2,5.8-5.4,9.4-6.9
				c5.9-2.4,12.1-4.5,18.3-6.1c5.8-1.5,11.8-2.1,17.6-3.2c7.5-1.4,15.1-1.4,22.6-1.2c4.6,0.2,9.3,0.9,13.9,1.6
				c5.9,0.9,11.8,1.9,17.6,3.3c8.1,1.9,15.9,4.6,22.5,9.8c4,3.2,5.9,7.5,6.7,12.5c0.7,4.9,1.4,9.7,2,14.6c0.5,3.7,0.8,7.4,1.3,11.1
				c0.5,3.7,1,7.3,1.5,11c0.5,3.5,1.1,7.1,1.3,10.6c1.9,27,0.4,54,0.8,81C206.9,337.3,206.8,337.6,206.8,338.2z M133.4,268.6
				c6,0,11.9,0,17.9,0c11.9,0,23.8,0.1,35.6,0c6.2-0.1,7.6-2.6,7.1-8.2c-0.2-2.7-0.8-5.5-1.2-8.2c-0.6-4.3-1.2-8.7-1.8-13
				c-0.6-4.4-1.3-8.8-2-13.2c-0.4-2.7-0.5-5.6-1.4-8.1c-1.4-3.9-3.6-5.2-8.9-5.2c-19.2-0.1-38.4,0-57.7,0c-11.1,0-22.2-0.2-33.4,0.1
				c-5.6,0.1-8.2,1.3-9.1,7.9c-0.4,3-0.8,6-1.3,9c-0.8,5.4-1.6,10.8-2.4,16.2c-0.7,4.7-1.2,9.5-2.1,14.2c-1,5.5,1.5,8.7,7.1,8.7
				C97.9,268.6,115.6,268.6,133.4,268.6z M133.5,204.3c9.9,0,19.9,0,29.8,0c2.9,0,4.8-1.8,4.8-4.6c0-3.1-1.5-4.9-4.6-4.9
				c-20.2,0-40.3,0-60.5,0.1c-1.1,0-2.4,0.8-3.3,1.6c-1.5,1.5-1.2,3.6-0.6,5.3c0.7,1.9,2.5,2.5,4.5,2.5
				C113.7,204.3,123.6,204.3,133.5,204.3z M73,304c-0.6,5.7,4.8,10.2,9.8,10.4c6.1,0.3,11-5.2,10.8-10.4
				c-0.3-6.1-4.3-10.1-10.4-10.3C77.7,293.5,72.2,298.9,73,304z M183.7,314.3c5.4,0.7,10.5-4.6,10.5-10.1c0-5.9-5-10.6-10.1-10.5
				c-6.3,0.1-10.5,4.6-10.7,10.6C173.3,309.2,178.4,315.1,183.7,314.3z"/>
		</g>
	</g>
	<g>
		<path fill="#FFFFFF" d="M296.5,320.4c0,2.9-2.3,5.2-5.2,5.2c-2.9,0-5.2-2.3-5.2-5.2v-19h-3.4v49.1c0,3.3-2.7,6-6,6s-6-2.7-6-6v-25
			h-3.5v25c0,3.3-2.7,6-6,6c-3.3,0-6-2.7-6-6v-49.1h-3.4v19c0,2.9-2.3,5.2-5.2,5.2c-2.9,0-5.2-2.3-5.2-5.2v-22.4
			c0-5.7,4.6-10.3,10.3-10.3h34.5c5.7,0,10.3,4.6,10.3,10.3V320.4z M268.9,285.9c-6.7,0-12.1-5.4-12.1-12.1s5.4-12.1,12.1-12.1
			s12.1,5.4,12.1,12.1S275.6,285.9,268.9,285.9z"/>
	</g>
	<g>
		<path fill="#FFFFFF" d="M372.3,320.4c0,2.9-2.3,5.2-5.2,5.2c-2.9,0-5.2-2.3-5.2-5.2v-19h-3.4v49.1c0,3.3-2.7,6-6,6s-6-2.7-6-6v-25
			H343v25c0,3.3-2.7,6-6,6s-6-2.7-6-6v-49.1h-3.4v19c0,2.9-2.3,5.2-5.2,5.2c-2.9,0-5.2-2.3-5.2-5.2v-22.4c0-5.7,4.6-10.3,10.3-10.3
			H362c5.7,0,10.3,4.6,10.3,10.3V320.4z M344.7,285.9c-6.7,0-12.1-5.4-12.1-12.1s5.4-12.1,12.1-12.1c6.7,0,12.1,5.4,12.1,12.1
			S351.4,285.9,344.7,285.9z"/>
	</g>
	<g>
		<path fill="#FFFFFF" d="M448.1,320.4c0,2.9-2.3,5.2-5.2,5.2c-2.9,0-5.2-2.3-5.2-5.2v-19h-3.4v49.1c0,3.3-2.7,6-6,6s-6-2.7-6-6v-25
			h-3.5v25c0,3.3-2.7,6-6,6c-3.3,0-6-2.7-6-6v-49.1h-3.4v19c0,2.9-2.3,5.2-5.2,5.2c-2.9,0-5.2-2.3-5.2-5.2v-22.4
			c0-5.7,4.6-10.3,10.3-10.3h34.5c5.7,0,10.3,4.6,10.3,10.3V320.4z M420.5,285.9c-6.7,0-12.1-5.4-12.1-12.1s5.4-12.1,12.1-12.1
			s12.1,5.4,12.1,12.1S427.2,285.9,420.5,285.9z"/>
	</g>
</g>
</svg>
