<?xml version="1.0" encoding="utf-8"?>
<!-- Generator: Adobe Illustrator 18.0.0, SVG Export Plug-In . SVG Version: 6.00 Build 0)  -->
<!DOCTYPE svg PUBLIC "-//W3C//DTD SVG 1.1//EN" "http://www.w3.org/Graphics/SVG/1.1/DTD/svg11.dtd">
<svg version="1.1" id="Capa_1" xmlns="http://www.w3.org/2000/svg" xmlns:xlink="http://www.w3.org/1999/xlink" x="0px" y="0px"
	 viewBox="0 0 900 500" enable-background="new 0 0 900 500" xml:space="preserve">
<rect x="0.1" fill="#333333" width="899.7" height="500"/>
<g>
	<path fill="#FFFFFF" d="M125.6,430.9h-7.5v-57.3L108,401h-7.3l-10.1-27.4v57.3h-7.5V364h10.1l11.2,30.5l11.1-30.5h10.1V430.9z"/>
	<path fill="#FFFFFF" d="M176.7,362.8c7.5,0,13.2,3,17.1,8.9c3.9,5.9,5.9,14.5,5.9,25.9c0,11.2-2,19.8-5.9,25.8s-9.6,8.9-17.2,8.9
		c-7.5,0-13.2-3-17.1-8.9c-3.9-5.9-5.9-14.5-5.9-25.8s2-19.9,5.9-25.8S169.2,362.8,176.7,362.8z M176.7,425.4
		c9.9,0,14.8-9.3,14.8-27.9c0-18.6-4.9-27.9-14.8-27.9c-4.8,0-8.5,2.4-11,7.2c-2.5,4.8-3.8,11.7-3.8,20.7c0,9.1,1.2,16,3.7,20.7
		S171.9,425.4,176.7,425.4z"/>
	<path fill="#FFFFFF" d="M257.7,394.2c4.5,1,7.9,3.1,10.5,6.1c2.5,3,3.8,6.6,3.8,10.7c0,6.1-2.2,10.9-6.6,14.5s-9.7,5.4-15.9,5.4
		h-19V364H249c6.4,0,11.5,1.4,15.1,4.2c3.6,2.8,5.5,6.8,5.5,12c0,3.2-1.1,6-3.2,8.4s-5,4.2-8.7,5.4V394.2z M238.2,390.6h9.1
		c9.5,0,14.3-3.4,14.3-10.2c0-3.1-1.2-5.5-3.5-7.1s-5.8-2.5-10.3-2.5h-9.6V390.6z M238.2,424.1h8.8c5.2,0,9.2-1.2,12.3-3.5
		c3-2.3,4.5-5.5,4.5-9.6c0-4.3-1.5-7.7-4.5-10c-3-2.4-7.3-3.6-12.9-3.6h-8.2V424.1z"/>
	<path fill="#FFFFFF" d="M337.3,430.9h-30.4v-6.8h11.5v-53.3h-11.5V364h30.4v6.8h-11.1v53.3h11.1V430.9z"/>
	<path fill="#FFFFFF" d="M414.7,430.9h-36.4V364h7.8v60.1h28.6V430.9z"/>
	<path fill="#FFFFFF" d="M468,362.8c7.5,0,13.2,3,17.1,8.9c3.9,5.9,5.9,14.5,5.9,25.9c0,11.2-2,19.8-5.9,25.8
		c-3.9,5.9-9.6,8.9-17.2,8.9c-7.5,0-13.2-3-17.1-8.9c-3.9-5.9-5.9-14.5-5.9-25.8s2-19.9,5.9-25.8C454.8,365.7,460.5,362.8,468,362.8
		z M468,425.4c9.9,0,14.8-9.3,14.8-27.9c0-18.6-4.9-27.9-14.8-27.9c-4.8,0-8.5,2.4-11,7.2s-3.8,11.7-3.8,20.7c0,9.1,1.2,16,3.7,20.7
		C459.5,423,463.1,425.4,468,425.4z"/>
	<path fill="#FFFFFF" d="M562.4,430.9h-7.5v-57.3L544.8,401h-7.3l-10.1-27.4v57.3h-7.5V364H530l11.2,30.5l11.1-30.5h10.1V430.9z"/>
	<path fill="#FFFFFF" d="M628.5,430.9h-30.4v-6.8h11.5v-53.3h-11.5V364h30.4v6.8h-11.1v53.3h11.1V430.9z"/>
	<path fill="#FFFFFF" d="M708.1,426.7c-5.2,3.6-11.3,5.5-18.2,5.5c-8.7,0-15.2-3-19.7-8.9c-4.5-5.9-6.8-14.5-6.8-25.8
		c0-10.9,2.2-19.4,6.5-25.5c4.4-6.1,11-9.2,20-9.2c3.2,0,6.4,0.4,9.6,1.2c3.2,0.8,5.7,1.9,7.6,3.3l-2.6,6.1
		c-4.5-2.5-9.3-3.8-14.6-3.8c-6.2,0-10.7,2.2-13.7,6.7c-3,4.5-4.5,11.5-4.5,21.2c0,18.6,6.1,27.9,18.2,27.9c5.2,0,10.4-1.6,15.8-4.7
		L708.1,426.7z"/>
	<path fill="#FFFFFF" d="M773.5,371.4c-4-1.4-7.8-2-11.3-2c-4,0-7.3,0.9-9.9,2.8c-2.5,1.8-3.8,4.5-3.8,7.9c0,4,3.3,7.6,10,10.7
		c4.9,2.3,8.2,3.9,9.8,4.7c1.6,0.9,3.2,2.1,4.9,3.6c1.6,1.5,3,3.4,4,5.5c1,2.1,1.5,4.5,1.5,7.1c0,6.5-2.2,11.6-6.6,15.1
		c-4.4,3.6-9.5,5.4-15.5,5.4c-5.8,0-10.8-1.1-15.1-3.4l1.6-6.7c5.1,2.3,9.5,3.5,13.3,3.5c4.4,0,8-1.1,10.6-3.4c2.7-2.3,4-5.4,4-9.5
		c0-3-0.9-5.5-2.6-7.6c-1.7-2.1-4.9-4.2-9.6-6.3c-4.8-2.2-7.9-3.7-9.3-4.5c-1.4-0.8-2.8-1.9-4.2-3.3c-1.4-1.4-2.5-3-3.2-4.8
		s-1.1-3.7-1.1-5.8c0-5.5,2-9.8,6-12.9s9-4.6,15.1-4.6c4.5,0,8.9,0.7,13.3,2L773.5,371.4z"/>
</g>
<g>
	<path fill="#FFFFFF" d="M345.5,151.6c-0.7,0-1.3-0.3-1.8-0.8c-1-1.2-23.9-28.5-23.9-42.1c0-14.1,11.5-25.6,25.6-25.6
		s25.6,11.5,25.6,25.6c0,13.6-22.9,40.9-23.9,42.1C346.8,151.3,346.1,151.6,345.5,151.6z M345.5,87.7c-11.6,0-21,9.4-21,21
		c0,9,13.8,28.1,21,37c7.2-8.9,21-27.9,21-37C366.5,97.1,357,87.7,345.5,87.7z"/>
</g>
<g>
	<path fill="#FFFFFF" d="M345.5,119.6c-6.2,0-11.2-5-11.2-11.2c0-6.2,5-11.2,11.2-11.2c6.2,0,11.2,5,11.2,11.2
		C356.6,114.6,351.6,119.6,345.5,119.6z M345.5,101.9c-3.6,0-6.5,2.9-6.5,6.5c0,3.6,2.9,6.5,6.5,6.5s6.5-2.9,6.5-6.5
		C352,104.9,349.1,101.9,345.5,101.9z"/>
</g>
<g>
	<g>
		<path fill="#FFFFFF" d="M521.4,254.8c-0.7,0-1.3-0.3-1.8-0.8c-1-1.2-23.9-28.5-23.9-42.1c0-14.1,11.5-25.6,25.6-25.6
			c14.1,0,25.6,11.5,25.6,25.6c0,13.6-22.9,40.9-23.9,42.1C522.7,254.5,522.1,254.8,521.4,254.8z M521.4,190.9c-11.6,0-21,9.4-21,21
			c0,9.1,13.8,28.1,21,37c7.2-8.9,21-27.9,21-37C542.4,200.3,533,190.9,521.4,190.9z"/>
	</g>
	<g>
		<path fill="#FFFFFF" d="M521.4,222.9c-6.2,0-11.2-5-11.2-11.2c0-6.2,5-11.2,11.2-11.2s11.2,5,11.2,11.2
			C532.5,217.9,527.5,222.9,521.4,222.9z M521.4,205.2c-3.6,0-6.5,2.9-6.5,6.5c0,3.6,2.9,6.5,6.5,6.5s6.5-2.9,6.5-6.5
			C527.9,208.1,525,205.2,521.4,205.2z"/>
	</g>
</g>
<g>
	<g>
		<path fill="#FFFFFF" d="M429,204h-25.2c-1.3,0-2.3-1-2.3-2.3c0-1.3,1-2.3,2.3-2.3H429c19.5,0,28.4-12,28.4-23.1
			s-8.9-23.1-28.4-23.1h-82.9c-1.3,0-2.3-1-2.3-2.3c0-1.3,1-2.3,2.3-2.3H429c22.7,0,33,14.4,33,27.7S451.7,204,429,204z"/>
	</g>
	<g>
		<path fill="#FFFFFF" d="M519.5,254.8H375.7c-22.7,0-33-14.4-33-27.7s10.3-27.7,33-27.7H408c1.3,0,2.3,1,2.3,2.3
			c0,1.3-1,2.3-2.3,2.3h-32.3c-19.5,0-28.4,12-28.4,23.1c0,11.1,8.9,23.1,28.4,23.1h143.7c1.3,0,2.3,1,2.3,2.3
			S520.7,254.8,519.5,254.8z"/>
	</g>
</g>
<g>
	<g>
		<path fill="#FFFFFF" d="M436.1,118.5c0,0-0.1,0-0.1,0c-1.3,0-2.3-1.1-2.3-2.3c0-1.3,1-2.3,2.3-2.3c0,0,0.1,0,0.1,0
			c3.4,0,6.9-0.9,7.3-1.9c0.4-1-1.7-4.1-4.2-6.3c-1-0.8-1.1-2.3-0.2-3.3c0.8-1,2.3-1.1,3.3-0.2c1.2,1.1,7.3,6.7,5.5,11.4
			C446,118.2,438,118.5,436.1,118.5z"/>
	</g>
	<g>
		<path fill="#FFFFFF" d="M440.7,106.2c-0.5,0-1.1-0.2-1.5-0.6c-1.2-1.1-7.3-6.7-5.5-11.4c1.8-4.8,10-4.9,11.7-4.9
			c1.3,0,2.3,1.1,2.3,2.3c0,1.3-1,2.3-2.3,2.3c0,0-0.1,0-0.1,0c-3.4,0-6.9,0.9-7.3,1.9c-0.4,1.1,2,4.4,4.2,6.3
			c1,0.8,1.1,2.3,0.2,3.3C442,105.9,441.3,106.2,440.7,106.2z"/>
	</g>
	<g>
		<path fill="#FFFFFF" d="M445.4,93.9c0,0-0.1,0-0.1,0c-1.3,0-2.3-1-2.3-2.3c0-1.3,1-2.3,2.3-2.3c0,0,0.1,0,0.1,0
			c3.4,0,6.9-0.9,7.3-1.9c0.4-1-1.7-4.1-4.2-6.3c-1-0.8-1.1-2.3-0.2-3.3c0.8-1,2.3-1.1,3.3-0.2c1.2,1.1,7.3,6.7,5.5,11.4
			C455.3,93.6,447.3,93.9,445.4,93.9z"/>
	</g>
	<g>
		<path fill="#FFFFFF" d="M450,81.5c-0.5,0-1.1-0.2-1.5-0.6c-1.2-1.1-7.3-6.7-5.5-11.4c1.8-4.8,10.1-5,11.7-4.9
			c1.3,0,2.3,1.1,2.3,2.3c0,1.3-1.1,2.2-2.3,2.3c-3.4-0.1-7,0.9-7.4,1.9c-0.4,1,1.7,4.1,4.2,6.3c1,0.8,1.1,2.3,0.2,3.3
			C451.3,81.3,450.6,81.5,450,81.5z"/>
	</g>
	<g>
		<g>
			<path fill="#FFFFFF" d="M454.8,69.2c0,0-0.1,0-0.1,0c-1.3,0-2.3-1.1-2.3-2.3c0-1.3,1-2.3,2.3-2.3c0,0,0.1,0,0.1,0
				c3.4,0,6.9-0.9,7.3-1.9c0.4-1-1.7-4.1-4.2-6.3c-1-0.8-1.1-2.3-0.2-3.3c0.8-1,2.3-1.1,3.3-0.2c1.2,1.1,7.3,6.7,5.5,11.4
				C464.6,68.9,456.7,69.2,454.8,69.2z"/>
		</g>
	</g>
</g>
<g>
	<g>
		<path fill="#FFFFFF" d="M483.7,177.9c-2.1,0-3.9-0.3-4.6-0.4c-1.3-0.2-2.1-1.4-1.8-2.7c0.2-1.3,1.4-2.1,2.7-1.9
			c3.4,0.6,7.3,0.3,7.8-0.6c0.5-0.9-1.1-4.4-3.4-7.1c-0.8-1-0.7-2.4,0.3-3.3c1-0.8,2.4-0.7,3.3,0.3c1.1,1.3,6.4,7.9,3.9,12.4
			C490.2,177.3,486.7,177.9,483.7,177.9z"/>
	</g>
	<g>
		<path fill="#FFFFFF" d="M486.1,166.1c-0.7,0-1.3-0.3-1.8-0.8c-1.1-1.3-6.4-7.9-3.9-12.4c2.6-4.4,11-3.1,12.6-2.8
			c1.3,0.2,2.1,1.4,1.8,2.7c-0.2,1.3-1.4,2.1-2.7,1.9c-3.4-0.6-7.3-0.3-7.8,0.6c-0.5,0.9,1.1,4.4,3.4,7.1c0.8,1,0.7,2.4-0.3,3.3
			C487.2,165.9,486.7,166.1,486.1,166.1z"/>
	</g>
	<g>
		<path fill="#FFFFFF" d="M496.9,155.1c-2.1,0-3.9-0.3-4.6-0.4c-1.3-0.2-2.1-1.4-1.8-2.7c0.2-1.3,1.4-2.1,2.7-1.9
			c3.4,0.6,7.3,0.3,7.8-0.6c0.5-0.9-1.1-4.4-3.4-7.1c-0.8-1-0.7-2.4,0.3-3.3c1-0.8,2.4-0.7,3.3,0.3c1.1,1.3,6.4,7.9,3.9,12.4
			C503.5,154.5,499.9,155.1,496.9,155.1z"/>
	</g>
	<g>
		<path fill="#FFFFFF" d="M499.4,143.4c-0.7,0-1.3-0.3-1.8-0.8c-1.1-1.3-6.4-7.9-3.9-12.4c2.6-4.4,11-3.1,12.6-2.8
			c1.3,0.2,2.1,1.4,1.8,2.7c-0.2,1.3-1.4,2.1-2.7,1.9c-3.4-0.6-7.3-0.3-7.8,0.6c-0.5,0.9,1.1,4.4,3.4,7.1c0.8,1,0.7,2.4-0.3,3.3
			C500.4,143.2,499.9,143.4,499.4,143.4z"/>
	</g>
	<g>
		<g>
			<path fill="#FFFFFF" d="M510.1,132.3c-2.1,0-3.9-0.3-4.6-0.4c-1.3-0.2-2.1-1.4-1.8-2.7c0.2-1.3,1.4-2.1,2.7-1.9
				c3.4,0.6,7.3,0.3,7.8-0.6c0.5-0.9-1.1-4.4-3.4-7.1c-0.8-1-0.7-2.4,0.3-3.3c1-0.8,2.4-0.7,3.3,0.3c1.1,1.3,6.4,7.9,3.9,12.4
				C516.7,131.7,513.1,132.3,510.1,132.3z"/>
		</g>
	</g>
</g>
<g>
	<g>
		<path fill="#FFFFFF" d="M316,214.1c-0.6,0-1.2-0.2-1.6-0.7c-0.9-0.9-0.9-2.4-0.1-3.3c2.4-2.4,4.1-5.7,3.7-6.7
			c-0.5-1.1-4.5-1.6-7.5-1.3c-1.3,0.1-2.4-0.8-2.5-2.1c-0.1-1.3,0.8-2.4,2.1-2.5c1.6-0.2,9.9-0.7,12.1,3.9
			c2.2,4.6-3.4,10.7-4.5,11.9C317.2,213.9,316.6,214.1,316,214.1z"/>
	</g>
	<g>
		<path fill="#FFFFFF" d="M308.3,202.3c-3.1,0-8.2-0.6-9.8-4c-2.2-4.6,3.4-10.7,4.5-11.9c0.9-0.9,2.3-0.9,3.3-0.1
			c0.9,0.9,0.9,2.4,0.1,3.3c-2.4,2.4-4.1,5.7-3.7,6.7s4.1,1.6,7.5,1.3c1.3-0.1,2.4,0.8,2.5,2.1c0.1,1.3-0.8,2.4-2.1,2.5
			C310.1,202.3,309.3,202.3,308.3,202.3z"/>
	</g>
	<g>
		<path fill="#FFFFFF" d="M304.6,190.4c-0.6,0-1.2-0.2-1.6-0.7c-0.9-0.9-0.9-2.3-0.1-3.3c2.4-2.4,4.1-5.7,3.7-6.7s-4.1-1.6-7.5-1.3
			c-1.3,0.1-2.4-0.8-2.5-2.1c-0.1-1.3,0.8-2.4,2.1-2.5c1.6-0.2,9.9-0.7,12.1,3.9c2.2,4.6-3.4,10.7-4.5,11.9
			C305.8,190.1,305.2,190.4,304.6,190.4z"/>
	</g>
	<g>
		<path fill="#FFFFFF" d="M296.9,178.6c-3.1,0-8.2-0.6-9.8-4c-2.2-4.6,3.4-10.7,4.5-11.9c0.9-0.9,2.3-0.9,3.3-0.1
			c0.9,0.9,0.9,2.4,0.1,3.3c-2.4,2.4-4.1,5.7-3.7,6.7c0.5,1.1,4.5,1.6,7.5,1.3c1.3-0.1,2.4,0.8,2.5,2.1c0.1,1.3-0.8,2.4-2.1,2.5
			C298.8,178.5,297.9,178.6,296.9,178.6z"/>
	</g>
	<g>
		<g>
			<path fill="#FFFFFF" d="M293.3,166.6c-0.6,0-1.2-0.2-1.6-0.7c-0.9-0.9-0.9-2.3-0.1-3.3c2.4-2.4,4.1-5.7,3.7-6.7
				c-0.5-1.1-4.5-1.6-7.5-1.3c-1.3,0.1-2.4-0.8-2.5-2.1c-0.1-1.3,0.8-2.4,2.1-2.5c1.6-0.2,9.9-0.7,12.1,3.9
				c2.2,4.6-3.4,10.7-4.5,11.9C294.5,166.4,293.9,166.6,293.3,166.6z"/>
		</g>
	</g>
</g>
<g>
	<g>
		<path fill="#FFFFFF" d="M565.1,265.1c-2.3,0-4.4-0.4-5.1-0.6c-1.2-0.3-2-1.5-1.8-2.8c0.3-1.2,1.5-2,2.8-1.8c3.3,0.7,7,0.6,7.6-0.4
			c0.6-0.9-0.8-4.3-2.8-7.1c-0.8-1-0.6-2.5,0.5-3.2c1-0.8,2.5-0.6,3.2,0.5c1,1.3,5.8,8.1,3,12.3
			C570.9,264.5,567.8,265.1,565.1,265.1z"/>
	</g>
	<g>
		<path fill="#FFFFFF" d="M567.6,253.5c-0.7,0-1.4-0.3-1.9-0.9c-1-1.3-5.8-8.1-3-12.3c2.8-4.3,10.9-2.7,12.5-2.4
			c1.2,0.3,2,1.5,1.8,2.8c-0.3,1.2-1.5,2-2.8,1.8c-3.3-0.7-7-0.6-7.6,0.4c-0.6,1,1,4.7,2.8,7.1c0.8,1,0.6,2.5-0.5,3.2
			C568.6,253.4,568.1,253.5,567.6,253.5z"/>
	</g>
	<g>
		<path fill="#FFFFFF" d="M579.4,243c-2.3,0-4.4-0.4-5.1-0.6c-1.2-0.3-2-1.5-1.8-2.8c0.3-1.2,1.5-2,2.8-1.8c3.3,0.7,7,0.6,7.6-0.4
			c0.6-1-1-4.7-2.8-7.1c-0.8-1-0.6-2.5,0.5-3.2c1-0.8,2.5-0.6,3.2,0.5c1,1.3,5.8,8.1,3,12.3C585.2,242.4,582.1,243,579.4,243z"/>
	</g>
	<g>
		<path fill="#FFFFFF" d="M581.9,231.4c-0.7,0-1.4-0.3-1.8-0.9c-1-1.3-5.8-8.1-3-12.3c2.8-4.3,10.9-2.7,12.5-2.4
			c1.2,0.3,2,1.5,1.8,2.8c-0.3,1.2-1.5,2-2.8,1.8c-3.3-0.7-7-0.6-7.6,0.4c-0.6,0.9,0.8,4.3,2.8,7.1c0.8,1,0.6,2.5-0.5,3.2
			C582.9,231.2,582.4,231.4,581.9,231.4z"/>
	</g>
	<g>
		<g>
			<path fill="#FFFFFF" d="M593.7,220.8c-2.3,0-4.4-0.4-5.1-0.6c-1.2-0.3-2-1.5-1.8-2.8c0.3-1.2,1.5-2,2.8-1.8
				c3.3,0.7,7,0.6,7.6-0.4c0.6-0.9-0.8-4.3-2.8-7.1c-0.8-1-0.6-2.5,0.5-3.2c1-0.8,2.5-0.6,3.2,0.5c1,1.3,5.7,8.1,3,12.3
				C599.5,220.2,596.4,220.8,593.7,220.8z"/>
		</g>
	</g>
</g>
<g>
	<path fill="#FFFFFF" d="M392.7,70c-9.7,0-17.6-7.9-17.6-17.6s7.9-17.6,17.6-17.6c9.7,0,17.6,7.9,17.6,17.6S402.4,70,392.7,70z
		 M392.7,39.5c-7.1,0-12.9,5.8-12.9,12.9s5.8,12.9,12.9,12.9c7.1,0,12.9-5.8,12.9-12.9S399.8,39.5,392.7,39.5z"/>
</g>
<g>
	<path fill="#FFFFFF" d="M271.9,101.9c-10.6,0-19.3-8.7-19.3-19.3c0-10.6,8.7-19.3,19.3-19.3c10.6,0,19.3,8.7,19.3,19.3
		C291.2,93.3,282.5,101.9,271.9,101.9z M271.9,67.9c-8.1,0-14.7,6.6-14.7,14.7s6.6,14.7,14.7,14.7c8.1,0,14.7-6.6,14.7-14.7
		S280,67.9,271.9,67.9z"/>
</g>
<g>
	<path fill="#FFFFFF" d="M261.5,147c-4.9,0-8.9-4-8.9-8.9c0-4.9,4-8.9,8.9-8.9c4.9,0,8.9,4,8.9,8.9C270.3,143,266.4,147,261.5,147z
		 M261.5,133.8c-2.4,0-4.3,1.9-4.3,4.3s1.9,4.3,4.3,4.3c2.4,0,4.3-1.9,4.3-4.3S263.8,133.8,261.5,133.8z"/>
</g>
<g>
	<path fill="#FFFFFF" d="M560.9,169.1c-6.2,0-11.2-5-11.2-11.2c0-6.2,5-11.2,11.2-11.2c6.2,0,11.2,5,11.2,11.2
		C572,164.1,567,169.1,560.9,169.1z M560.9,151.4c-3.6,0-6.6,2.9-6.6,6.6s2.9,6.6,6.6,6.6s6.6-2.9,6.6-6.6S564.5,151.4,560.9,151.4z
		"/>
</g>
<g>
	<path fill="#FFFFFF" d="M564.2,83.2c-8.5,0-15.5-6.9-15.5-15.5s6.9-15.5,15.5-15.5c8.5,0,15.5,6.9,15.5,15.5S572.8,83.2,564.2,83.2
		z M564.2,56.9c-6,0-10.9,4.9-10.9,10.9c0,6,4.9,10.9,10.9,10.9c6,0,10.9-4.9,10.9-10.9C575.1,61.7,570.2,56.9,564.2,56.9z"/>
</g>
<g>
	<path fill="#FFFFFF" d="M490.2,110.8c-6.2,0-11.2-5-11.2-11.2s5-11.2,11.2-11.2c6.2,0,11.2,5,11.2,11.2S496.3,110.8,490.2,110.8z
		 M490.2,93.1c-3.6,0-6.6,2.9-6.6,6.6c0,3.6,2.9,6.6,6.6,6.6c3.6,0,6.6-2.9,6.6-6.6C496.7,96,493.8,93.1,490.2,93.1z"/>
</g>
<g>
	<path fill="#FFFFFF" d="M303.6,272.5c-6.5,0-11.8-5.3-11.8-11.8c0-6.5,5.3-11.8,11.8-11.8c6.5,0,11.8,5.3,11.8,11.8
		C315.5,267.2,310.1,272.5,303.6,272.5z M303.6,253.5c-4,0-7.2,3.2-7.2,7.2c0,4,3.2,7.2,7.2,7.2s7.2-3.2,7.2-7.2
		C310.8,256.7,307.6,253.5,303.6,253.5z"/>
</g>
</svg>
