<?xml version="1.0" encoding="utf-8"?>
<!-- Generator: Adobe Illustrator 18.0.0, SVG Export Plug-In . SVG Version: 6.00 Build 0)  -->
<!DOCTYPE svg PUBLIC "-//W3C//DTD SVG 1.1//EN" "http://www.w3.org/Graphics/SVG/1.1/DTD/svg11.dtd">
<svg version="1.1" id="Capa_2" xmlns="http://www.w3.org/2000/svg" xmlns:xlink="http://www.w3.org/1999/xlink" x="0px" y="0px"
	 viewBox="50 866.9 500 350" enable-background="new 50 866.9 500 350" xml:space="preserve">
<path fill="none" stroke="#FFFFFF" stroke-width="5" stroke-linecap="round" stroke-linejoin="round" stroke-miterlimit="10" d="
	M238.3,993.8c0,17.7-31.8,55.3-31.8,55.3s-31.8-38.1-31.8-55.3s14.1-31.8,31.8-31.8S238.3,976,238.3,993.8z"/>
<circle fill="none" stroke="#FFFFFF" stroke-width="5" stroke-linecap="round" stroke-linejoin="round" stroke-miterlimit="10" cx="205.4" cy="991.2" r="12"/>
<g>
	<path fill="none" stroke="#FFFFFF" stroke-width="5" stroke-linecap="round" stroke-linejoin="round" stroke-miterlimit="10" d="
		M475.2,1132.8c0,17.7-31.8,55.3-31.8,55.3s-31.8-37.6-31.8-55.3c0-17.7,14.1-31.8,31.8-31.8S475.2,1115.6,475.2,1132.8z"/>
	
		<circle fill="none" stroke="#FFFFFF" stroke-width="5" stroke-linecap="round" stroke-linejoin="round" stroke-miterlimit="10" cx="443.4" cy="1132.8" r="12"/>
</g>
<g>
	<path fill="none" stroke="#FFFFFF" stroke-width="5" stroke-linecap="round" stroke-linejoin="round" stroke-miterlimit="10" d="
		M206.5,1049.1c0,0,57.4,0,113.2,0s55.8,69.4,0,69.4h-34.4"/>
	<path fill="none" stroke="#FFFFFF" stroke-width="5" stroke-linecap="round" stroke-linejoin="round" stroke-miterlimit="10" d="
		M443.4,1187.8c0,0-140.4,0-196.7,0c-55.8,0-55.8-69.4,0-69.4H291"/>
</g>
<g>
	<path fill="none" stroke="#FFFFFF" stroke-width="5" stroke-linecap="round" stroke-linejoin="round" stroke-miterlimit="10" d="
		M396.9,1066.3c0,0,7.3,8.9,4.7,13c-2.6,4.2-14.1,2.1-14.1,2.1"/>
	<path fill="none" stroke="#FFFFFF" stroke-width="5" stroke-linecap="round" stroke-linejoin="round" stroke-miterlimit="10" d="
		M396.9,1066.3c0,0-7.3-8.9-4.7-13c2.6-4.2,14.1-2.1,14.1-2.1"/>
	<path fill="none" stroke="#FFFFFF" stroke-width="5" stroke-linecap="round" stroke-linejoin="round" stroke-miterlimit="10" d="
		M415.7,1036c0,0,7.3,8.9,4.7,13c-2.6,4.2-14.1,2.1-14.1,2.1"/>
	<path fill="none" stroke="#FFFFFF" stroke-width="5" stroke-linecap="round" stroke-linejoin="round" stroke-miterlimit="10" d="
		M415.7,1036c0,0-7.3-8.9-4.7-13c2.6-4.2,14.1-2.1,14.1-2.1"/>
	<g>
		<path fill="none" stroke="#FFFFFF" stroke-width="5" stroke-linecap="round" stroke-linejoin="round" stroke-miterlimit="10" d="
			M434.5,1005.8c0,0,7.3,8.9,4.7,13c-2.6,4.2-14.1,2.1-14.1,2.1"/>
	</g>
</g>
<circle fill="none" stroke="#FFFFFF" stroke-width="5" stroke-linecap="round" stroke-linejoin="round" stroke-miterlimit="10" cx="270.1" cy="914.5" r="20.9"/>
<circle fill="none" stroke="#FFFFFF" stroke-width="5" stroke-linecap="round" stroke-linejoin="round" stroke-miterlimit="10" cx="104.7" cy="955.7" r="23.5"/>
<circle fill="none" stroke="#FFFFFF" stroke-width="5" stroke-linecap="round" stroke-linejoin="round" stroke-miterlimit="10" cx="128.2" cy="1012.6" r="8.9"/>
<circle fill="none" stroke="#FFFFFF" stroke-width="5" stroke-linecap="round" stroke-linejoin="round" stroke-miterlimit="10" cx="499.7" cy="1059" r="12"/>
<circle fill="none" stroke="#FFFFFF" stroke-width="5" stroke-linecap="round" stroke-linejoin="round" stroke-miterlimit="10" cx="504.4" cy="935.3" r="18.3"/>
<circle fill="none" stroke="#FFFFFF" stroke-width="5" stroke-linecap="round" stroke-linejoin="round" stroke-miterlimit="10" cx="403.2" cy="979.2" r="12"/>
<g>
	<path fill="none" stroke="#FFFFFF" stroke-width="5" stroke-linecap="round" stroke-linejoin="round" stroke-miterlimit="10" d="
		M164.7,1112.3c0,0,10.9-3.5,13.9,0.4s-3.2,13.9-3.2,13.9"/>
	<path fill="none" stroke="#FFFFFF" stroke-width="5" stroke-linecap="round" stroke-linejoin="round" stroke-miterlimit="10" d="
		M164.7,1112.3c0,0-10.9,3.5-13.9-0.4s3.2-13.9,3.2-13.9"/>
	<path fill="none" stroke="#FFFFFF" stroke-width="5" stroke-linecap="round" stroke-linejoin="round" stroke-miterlimit="10" d="
		M143.5,1083.7c0,0,10.9-3.5,13.9,0.4c2.9,4-3.2,13.9-3.2,13.9"/>
	<path fill="none" stroke="#FFFFFF" stroke-width="5" stroke-linecap="round" stroke-linejoin="round" stroke-miterlimit="10" d="
		M143.5,1083.7c0,0-10.9,3.5-13.9-0.4c-2.9-4,3.2-13.9,3.2-13.9"/>
	<g>
		<path fill="none" stroke="#FFFFFF" stroke-width="5" stroke-linecap="round" stroke-linejoin="round" stroke-miterlimit="10" d="
			M122.3,1055.1c0,0,10.9-3.5,13.9,0.4c2.9,4-3.2,13.9-3.2,13.9"/>
	</g>
</g>
</svg>
