<?xml version="1.0" encoding="utf-8"?>
<!-- Generator: Adobe Illustrator 18.0.0, SVG Export Plug-In . SVG Version: 6.00 Build 0)  -->
<!DOCTYPE svg PUBLIC "-//W3C//DTD SVG 1.1//EN" "http://www.w3.org/Graphics/SVG/1.1/DTD/svg11.dtd">
<svg version="1.1" id="Capa_1" xmlns="http://www.w3.org/2000/svg" xmlns:xlink="http://www.w3.org/1999/xlink" x="0px" y="0px"
	 viewBox="0 0 500 500" enable-background="new 0 0 500 500" xml:space="preserve">
<rect x="-4.1" fill="#333333" width="504.1" height="500"/>
<g>
	<g>
		<path fill="#FFFFFF" d="M338.6,380.8c-25.3,0-45.9-20.6-45.9-46c0-25.3,20.6-46,45.9-46c25.3,0,46,20.6,46,46
			C384.6,360.2,364,380.8,338.6,380.8z M338.6,296.6c-21.1,0-38.2,17.1-38.2,38.2c0,21.1,17.1,38.2,38.2,38.2
			c21.1,0,38.2-17.1,38.2-38.2C376.8,313.8,359.7,296.6,338.6,296.6z"/>
	</g>
	<g>
		<path fill="#FFFFFF" d="M145.7,380.8c-25.3,0-46-20.6-46-46c0-25.3,20.6-46,46-46s46,20.6,46,46
			C191.6,360.2,171,380.8,145.7,380.8z M145.7,296.6c-21.1,0-38.2,17.1-38.2,38.2c0,21.1,17.1,38.2,38.2,38.2s38.2-17.1,38.2-38.2
			C183.9,313.8,166.7,296.6,145.7,296.6z"/>
	</g>
	<g>
		<path fill="#FFFFFF" d="M174.5,308.2c-0.8,0-1.6-0.2-2.3-0.7c-1.7-1.2-2.1-3.7-0.9-5.4l25.6-35.6c1.2-1.7,3.7-2.1,5.4-0.9
			c1.7,1.2,2.1,3.7,0.9,5.4l-25.6,35.6C176.9,307.7,175.7,308.2,174.5,308.2z"/>
	</g>
	<g>
		<path fill="#FFFFFF" d="M309.8,308.2c-1.2,0-2.4-0.6-3.1-1.6L281,271c-1.2-1.7-0.9-4.2,0.9-5.4c1.7-1.2,4.2-0.9,5.4,0.9l25.6,35.6
			c1.3,1.7,0.9,4.2-0.9,5.4C311.4,308,310.6,308.2,309.8,308.2z"/>
	</g>
	<g>
		<g>
			<path fill="#FFFFFF" d="M242.1,284.6c-39.4,0-71.5-32.1-71.5-71.5s32.1-71.5,71.5-71.5s71.5,32.1,71.5,71.5
				S281.6,284.6,242.1,284.6z M242.1,149.3c-35.2,0-63.8,28.6-63.8,63.8s28.6,63.8,63.8,63.8s63.8-28.6,63.8-63.8
				S277.3,149.3,242.1,149.3z"/>
		</g>
		<g>
			<path fill="#FFFFFF" d="M242.1,252.5c-9,0-17-5.9-20.1-14.7c-0.7-2,0.4-4.2,2.4-4.9c2-0.7,4.2,0.4,4.9,2.4
				c2,5.7,7.1,9.5,12.7,9.5s10.8-3.8,12.7-9.5c0.7-2,2.9-3.1,4.9-2.4c2,0.7,3.1,2.9,2.4,4.9C259.2,246.6,251.1,252.5,242.1,252.5z"
				/>
		</g>
		<g>
			<circle fill="#FFFFFF" cx="209.4" cy="209.7" r="10"/>
		</g>
		<g>
			<circle fill="#FFFFFF" cx="274.9" cy="209.7" r="10"/>
		</g>
	</g>
</g>
</svg>
