<?xml version="1.0" encoding="utf-8"?>
<!-- Generator: Adobe Illustrator 18.0.0, SVG Export Plug-In . SVG Version: 6.00 Build 0)  -->
<!DOCTYPE svg PUBLIC "-//W3C//DTD SVG 1.1//EN" "http://www.w3.org/Graphics/SVG/1.1/DTD/svg11.dtd">
<svg version="1.1" id="Capa_1" xmlns="http://www.w3.org/2000/svg" xmlns:xlink="http://www.w3.org/1999/xlink" x="0px" y="0px"
	 viewBox="0 0 500 500" enable-background="new 0 0 500 500" xml:space="preserve">
<rect x="-4.1" fill="#333333" width="504.1" height="500"/>
<g>
	<g>
		<path fill="#FFFFFF" d="M357.9,399.2H144.4c-22.4,0-40.6-18.2-40.6-40.6v-170c0-16.2,9.7-30.6,24-37c-5.6-4.6-9.1-11.6-9.1-19.2
			c0-13.7,11.2-24.9,24.9-24.9h72.1c0-0.6-0.1-1.2-0.1-1.8c0-18.3,14.9-33.2,33.2-33.2s33.2,14.9,33.2,33.2c0,0.6,0,1.2-0.1,1.8
			h72.1c13.7,0,24.9,11.2,24.9,24.9c0,7-2.9,13.4-7.7,18c15.9,5.6,27,20.7,27,38.2v170C398.5,381,380.3,399.2,357.9,399.2z
			 M143.8,114.8c-9.7,0-17.5,7.9-17.5,17.5c0,7.6,4.8,14.2,12,16.6c1.6,0.5,2.6,2.1,2.5,3.7c-0.1,1.7-1.3,3.1-3,3.4
			c-15.4,3.1-26.5,16.8-26.5,32.5v170c0,18.3,14.9,33.2,33.2,33.2h213.5c18.3,0,33.2-14.9,33.2-33.2v-170c0-16.8-12.6-31-29.3-32.9
			c-1.7-0.2-3-1.5-3.2-3.2c-0.2-1.7,0.7-3.3,2.3-3.9c6.6-2.7,10.9-9.1,10.9-16.2c0-9.7-7.9-17.5-17.5-17.5H278
			c-1.1,0-2.1-0.5-2.8-1.3c-0.7-0.8-1-2-0.8-3c0.3-1.7,0.5-3.3,0.5-4.9c0-14.3-11.6-25.9-25.9-25.9s-25.9,11.6-25.9,25.9
			c0,1.6,0.2,3.2,0.5,4.9c0.2,1.1-0.1,2.2-0.8,3c-0.7,0.8-1.7,1.3-2.8,1.3H143.8z"/>
	</g>
	<g>
		<path fill="#FFFFFF" d="M355.8,382.6H142.6c-2,0-3.7-1.7-3.7-3.7v-31.4c0-2,1.7-3.7,3.7-3.7h21.2v-43.4c0-2,1.7-3.7,3.7-3.7h22.2
			c2,0,3.7,1.7,3.7,3.7v43.4h7.4v-51.7c0-2,1.7-3.7,3.7-3.7H222c2,0,3.7,1.7,3.7,3.7v22.2h21.2v-41.5c0-2,1.7-3.7,3.7-3.7h29.5
			c2,0,3.7,1.7,3.7,3.7v71.1h3.7v-37.9c0-2,1.7-3.7,3.7-3.7h31.4c2,0,3.7,1.7,3.7,3.7v21.2H342c2,0,3.7,1.7,3.7,3.7v12.9h10.2
			c2,0,3.7,1.7,3.7,3.7v31.4C359.5,380.9,357.9,382.6,355.8,382.6z M146.2,375.2h205.9v-24H342c-2,0-3.7-1.7-3.7-3.7v-12.9h-15.7
			c-2,0-3.7-1.7-3.7-3.7v-21.2h-24v37.9c0,2-1.7,3.7-3.7,3.7h-11.1c-2,0-3.7-1.7-3.7-3.7v-71.1h-22.2v41.5c0,2-1.7,3.7-3.7,3.7H222
			c-2,0-3.7-1.7-3.7-3.7v-22.2h-10.2v51.7c0,2-1.7,3.7-3.7,3.7h-14.8c-2,0-3.7-1.7-3.7-3.7v-43.4h-14.8v43.4c0,2-1.7,3.7-3.7,3.7
			h-21.2V375.2z"/>
	</g>
	<g>
		<circle fill="#FFFFFF" cx="306.9" cy="224.7" r="7.4"/>
	</g>
	<g>
		<circle fill="#FFFFFF" cx="230.3" cy="234.8" r="7.4"/>
	</g>
	<g>
		<circle fill="#FFFFFF" cx="166.6" cy="193.3" r="7.4"/>
	</g>
	<g>
		<circle fill="#FFFFFF" cx="279.2" cy="216.4" r="4.4"/>
	</g>
	<g>
		<circle fill="#FFFFFF" cx="207.2" cy="191.4" r="4.4"/>
	</g>
	<g>
		<circle fill="#FFFFFF" cx="194.3" cy="248.7" r="4.4"/>
	</g>
	<g>
		<circle fill="#FFFFFF" cx="135.2" cy="254.2" r="4.4"/>
	</g>
	<g>
		<circle fill="#FFFFFF" cx="170.3" cy="272.7" r="4.4"/>
	</g>
	<g>
		<circle fill="#FFFFFF" cx="335.5" cy="286.5" r="4.4"/>
	</g>
	<g>
		<circle fill="#FFFFFF" cx="322.6" cy="189.6" r="4.4"/>
	</g>
	<g>
		<circle fill="#FFFFFF" cx="220.1" cy="174.8" r="4.4"/>
	</g>
	<g>
		<circle fill="#FFFFFF" cx="137" cy="172" r="4.4"/>
	</g>
	<g>
		<circle fill="#FFFFFF" cx="138.9" cy="195.1" r="4.4"/>
	</g>
	<g>
		<circle fill="#FFFFFF" cx="123.2" cy="329" r="4.4"/>
	</g>
	<g>
		<circle fill="#FFFFFF" cx="362.3" cy="296.7" r="4.4"/>
	</g>
	<g>
		<circle fill="#FFFFFF" cx="259.3" cy="244.2" r="4.4"/>
	</g>
	<g>
		<circle fill="#FFFFFF" cx="176.7" cy="226.5" r="7.4"/>
	</g>
	<g>
		<circle fill="#FFFFFF" cx="270.9" cy="191.4" r="7.4"/>
	</g>
	<g>
		<circle fill="#FFFFFF" cx="317.1" cy="246.8" r="4.4"/>
	</g>
	<g>
		<circle fill="#FFFFFF" cx="356.8" cy="178.5" r="4.4"/>
	</g>
	<g>
		<circle fill="#FFFFFF" cx="352.9" cy="250.9" r="4.4"/>
	</g>
	<g>
		<circle fill="#FFFFFF" cx="357.7" cy="218.2" r="7.4"/>
	</g>
	<g>
		<circle fill="#FFFFFF" cx="140.7" cy="293.9" r="7.4"/>
	</g>
	<g>
		<circle fill="#FFFFFF" cx="126.9" cy="220.1" r="7.4"/>
	</g>
	<g>
		<path fill="#FFFFFF" d="M404.8,204.7c15.6,0,28.3,12.7,28.3,28.3c0,15.6-12.7,28.3-28.3,28.3c-1.6,0-3.3-0.1-4.9-0.4v-55.7
			C401.5,204.8,403.1,204.7,404.8,204.7 M404.8,197.3c-4.3,0-8.5,0.8-12.3,2.2v67c3.8,1.4,8,2.2,12.3,2.2c19.7,0,35.7-16,35.7-35.7
			S424.5,197.3,404.8,197.3L404.8,197.3z"/>
	</g>
	<g>
		<path fill="#FFFFFF" d="M98.2,205.3L98.2,205.3c1.6,0,3.3,0.1,4.9,0.4v55.7c-1.6,0.3-3.3,0.4-4.9,0.4c-15.6,0-28.3-12.7-28.3-28.3
			C69.9,218,82.6,205.3,98.2,205.3 M98.2,197.9C98.2,197.9,98.2,197.9,98.2,197.9c-19.7,0-35.7,16-35.7,35.7
			c0,19.7,16,35.7,35.7,35.7c0,0,0,0,0,0c4.3,0,8.5-0.8,12.3-2.2v-67C106.7,198.7,102.6,197.9,98.2,197.9L98.2,197.9z"/>
	</g>
</g>
</svg>
