<?xml version="1.0" encoding="utf-8"?>
<!-- Generator: Adobe Illustrator 18.0.0, SVG Export Plug-In . SVG Version: 6.00 Build 0)  -->
<!DOCTYPE svg PUBLIC "-//W3C//DTD SVG 1.1//EN" "http://www.w3.org/Graphics/SVG/1.1/DTD/svg11.dtd">
<svg version="1.1" id="Capa_1" xmlns="http://www.w3.org/2000/svg" xmlns:xlink="http://www.w3.org/1999/xlink" x="0px" y="0px"
	 viewBox="0 0 900 500" enable-background="new 0 0 900 500" xml:space="preserve">
<rect x="0.1" fill="#333333" width="899.7" height="500"/>
<g>
	<g>
		<path fill="#FFFFFF" d="M374,409.5h-44.2c-2,0-3.6-1.6-3.6-3.6v-191c0-2,1.6-3.6,3.6-3.6H374c2,0,3.6,1.6,3.6,3.6v191
			C377.6,407.9,376,409.5,374,409.5z M333.5,402.3h36.9V218.5h-36.9V402.3z"/>
	</g>
	<g>
		<path fill="#FFFFFF" d="M439.2,410.6h-38.6c-2,0-3.6-1.6-3.6-3.6V230.3c0-2,1.6-3.6,3.6-3.6h38.6c2,0,3.6,1.6,3.6,3.6V407
			C442.8,409,441.2,410.6,439.2,410.6z M404.1,403.4h31.4V233.9h-31.4V403.4z"/>
	</g>
	<g>
		<path fill="#FFFFFF" d="M494.4,409.9h-37.5c-1.1,0-2.2-0.5-2.9-1.4c-0.7-0.9-0.9-2-0.6-3.1l23.2-89.4c0.4-1.6,1.8-2.7,3.5-2.7
			h37.5c1.1,0,2.2,0.5,2.9,1.4c0.7,0.9,0.9,2,0.6,3.1l-23.2,89.4C497.4,408.7,496,409.9,494.4,409.9z M461.5,402.6h30.1l21.3-82.2
			h-30.1L461.5,402.6z"/>
	</g>
	<g>
		<path fill="#FFFFFF" d="M595.4,410.2h-37.5c-1.6,0-3.1-1.1-3.5-2.7l-23.2-89.4c-0.3-1.1,0-2.2,0.6-3.1c0.7-0.9,1.7-1.4,2.9-1.4
			h37.5c1.6,0,3.1,1.1,3.5,2.7l23.2,89.4c0.3,1.1,0,2.2-0.6,3.1C597.6,409.7,596.5,410.2,595.4,410.2z M560.6,403h30.1l-21.3-82.2
			h-30.1L560.6,403z"/>
	</g>
	<g>
		<path fill="#FFFFFF" d="M697.5,410.6h-81.7c-2,0-3.6-1.6-3.6-3.6v-44.2c0-2,1.6-3.6,3.6-3.6h43.1c1.1,0,2.2,0.5,2.9,1.5l11.1,15.1
			h24.7c2,0,3.6,1.6,3.6,3.6V407C701.1,409,699.5,410.6,697.5,410.6z M619.4,403.4h74.5V383H671c-1.1,0-2.2-0.5-2.9-1.5L657,366.4
			h-37.6V403.4z"/>
	</g>
	<g>
		<path fill="#FFFFFF" d="M310,411.7H177.5c-2,0-3.6-1.6-3.6-3.6v-38.6c0-2,1.6-3.6,3.6-3.6h67V322c0-2,1.6-3.6,3.6-3.6H310
			c2,0,3.6,1.6,3.6,3.6v86.1C313.6,410.1,312,411.7,310,411.7z M181.1,404.5h125.3v-78.9h-54.6v43.9c0,2-1.6,3.6-3.6,3.6h-67V404.5z
			"/>
	</g>
	<g>
		<path fill="#FFFFFF" d="M833.8,441.6H66.2c-2,0-3.6-1.6-3.6-3.6V59c0-2,1.6-3.6,3.6-3.6h767.6c2,0,3.6,1.6,3.6,3.6V438
			C837.4,439.9,835.8,441.6,833.8,441.6z M69.8,434.3h760.4V62.7H69.8V434.3z"/>
	</g>
	<g>
		<path fill="#FFFFFF" d="M656.6,258.7c-11.1,0-20.1-9-20.1-20.1c0-11.1,9-20.1,20.1-20.1c11.1,0,20.1,9,20.1,20.1
			C676.7,249.7,667.7,258.7,656.6,258.7z M656.6,225.7c-7.1,0-12.9,5.8-12.9,12.9s5.8,12.9,12.9,12.9s12.9-5.8,12.9-12.9
			S663.7,225.7,656.6,225.7z"/>
	</g>
	<g>
		<path fill="#FFFFFF" d="M390.5,181.7H173.9c-2,0-3.6-1.6-3.6-3.6c0-2,1.6-3.6,3.6-3.6h216.5c2,0,3.6,1.6,3.6,3.6
			C394.1,180.1,392.5,181.7,390.5,181.7z"/>
	</g>
	<g>
		<path fill="#FFFFFF" d="M581.7,187.2H417.5c-2,0-3.6-1.6-3.6-3.6c0-2,1.6-3.6,3.6-3.6h164.2c2,0,3.6,1.6,3.6,3.6
			C585.3,185.5,583.7,187.2,581.7,187.2z"/>
	</g>
	<g>
		<path fill="#FFFFFF" d="M635.8,205.2H502.3c-2,0-3.6-1.6-3.6-3.6c0-2,1.6-3.6,3.6-3.6h133.5c2,0,3.6,1.6,3.6,3.6
			C639.5,203.6,637.8,205.2,635.8,205.2z"/>
	</g>
	<g>
		<path fill="#FFFFFF" d="M296.6,214.2h-97.4c-2,0-3.6-1.6-3.6-3.6c0-2,1.6-3.6,3.6-3.6h97.4c2,0,3.6,1.6,3.6,3.6
			C300.2,212.6,298.6,214.2,296.6,214.2z"/>
	</g>
	<g>
		<path fill="#FFFFFF" d="M401.3,140.2H284c-2,0-3.6-1.6-3.6-3.6c0-2,1.6-3.6,3.6-3.6h117.3c2,0,3.6,1.6,3.6,3.6
			C404.9,138.6,403.3,140.2,401.3,140.2z"/>
	</g>
	<g>
		<path fill="#FFFFFF" d="M525.8,156.5h-90.2c-2,0-3.6-1.6-3.6-3.6c0-2,1.6-3.6,3.6-3.6h90.2c2,0,3.6,1.6,3.6,3.6
			C529.4,154.9,527.8,156.5,525.8,156.5z"/>
	</g>
	<g>
		<path fill="#FFFFFF" d="M718.8,161.9H585.3c-2,0-3.6-1.6-3.6-3.6c0-2,1.6-3.6,3.6-3.6h133.5c2,0,3.6,1.6,3.6,3.6
			C722.4,160.3,720.8,161.9,718.8,161.9z"/>
	</g>
	<g>
		<path fill="#FFFFFF" d="M220.9,147.5h-61.3c-2,0-3.6-1.6-3.6-3.6c0-2,1.6-3.6,3.6-3.6h61.3c2,0,3.6,1.6,3.6,3.6
			C224.5,145.8,222.8,147.5,220.9,147.5z"/>
	</g>
	<g>
		<path fill="#FFFFFF" d="M261.5,144.8H238c-2,0-3.6-1.6-3.6-3.6c0-2,1.6-3.6,3.6-3.6h23.5c2,0,3.6,1.6,3.6,3.6
			C265.1,143.1,263.4,144.8,261.5,144.8z"/>
	</g>
	<g>
		<path fill="#FFFFFF" d="M377.8,158.3h-18.9c-2,0-3.6-1.6-3.6-3.6s1.6-3.6,3.6-3.6h18.9c2,0,3.6,1.6,3.6,3.6
			S379.8,158.3,377.8,158.3z"/>
	</g>
	<g>
		<path fill="#FFFFFF" d="M317.4,162.8h-11.7c-2,0-3.6-1.6-3.6-3.6s1.6-3.6,3.6-3.6h11.7c2,0,3.6,1.6,3.6,3.6
			S319.4,162.8,317.4,162.8z"/>
	</g>
	<g>
		<path fill="#FFFFFF" d="M250.6,162.8h-17.1c-2,0-3.6-1.6-3.6-3.6s1.6-3.6,3.6-3.6h17.1c2,0,3.6,1.6,3.6,3.6
			S252.6,162.8,250.6,162.8z"/>
	</g>
	<g>
		<path fill="#FFFFFF" d="M517.7,134.8h-35.2c-2,0-3.6-1.6-3.6-3.6s1.6-3.6,3.6-3.6h35.2c2,0,3.6,1.6,3.6,3.6
			S519.7,134.8,517.7,134.8z"/>
	</g>
	<g>
		<path fill="#FFFFFF" d="M582.6,135.7h-14.4c-2,0-3.6-1.6-3.6-3.6c0-2,1.6-3.6,3.6-3.6h14.4c2,0,3.6,1.6,3.6,3.6
			C586.2,134.1,584.6,135.7,582.6,135.7z"/>
	</g>
	<g>
		<path fill="#FFFFFF" d="M671,132.1h-31.6c-2,0-3.6-1.6-3.6-3.6c0-2,1.6-3.6,3.6-3.6H671c2,0,3.6,1.6,3.6,3.6
			C674.6,130.5,673,132.1,671,132.1z"/>
	</g>
	<g>
		<path fill="#FFFFFF" d="M718.8,141.1h-20.7c-2,0-3.6-1.6-3.6-3.6c0-2,1.6-3.6,3.6-3.6h20.7c2,0,3.6,1.6,3.6,3.6
			C722.4,139.5,720.8,141.1,718.8,141.1z"/>
	</g>
	<g>
		<path fill="#FFFFFF" d="M624.1,184.4h-19.8c-2,0-3.6-1.6-3.6-3.6c0-2,1.6-3.6,3.6-3.6h19.8c2,0,3.6,1.6,3.6,3.6
			C627.7,182.8,626.1,184.4,624.1,184.4z"/>
	</g>
	<g>
		<path fill="#FFFFFF" d="M170.3,206.1h-18c-2,0-3.6-1.6-3.6-3.6c0-2,1.6-3.6,3.6-3.6h18c2,0,3.6,1.6,3.6,3.6
			C173.9,204.5,172.3,206.1,170.3,206.1z"/>
	</g>
	<g>
		<path fill="#FFFFFF" d="M416.6,201.6H395c-2,0-3.6-1.6-3.6-3.6c0-2,1.6-3.6,3.6-3.6h21.7c2,0,3.6,1.6,3.6,3.6
			C420.2,200,418.6,201.6,416.6,201.6z"/>
	</g>
	<g>
		<path fill="#FFFFFF" d="M460.8,207.9h-15.3c-2,0-3.6-1.6-3.6-3.6c0-2,1.6-3.6,3.6-3.6h15.3c2,0,3.6,1.6,3.6,3.6
			C464.4,206.3,462.8,207.9,460.8,207.9z"/>
	</g>
	<g>
		<path fill="#FFFFFF" d="M453.6,132.1h-17.1c-2,0-3.6-1.6-3.6-3.6c0-2,1.6-3.6,3.6-3.6h17.1c2,0,3.6,1.6,3.6,3.6
			C457.2,130.5,455.6,132.1,453.6,132.1z"/>
	</g>
	<g>
		<path fill="#FFFFFF" d="M201.9,126.7H183c-2,0-3.6-1.6-3.6-3.6s1.6-3.6,3.6-3.6h18.9c2,0,3.6,1.6,3.6,3.6S203.9,126.7,201.9,126.7
			z"/>
	</g>
	<g>
		<path fill="#FFFFFF" d="M273.2,124h-29.8c-2,0-3.6-1.6-3.6-3.6c0-2,1.6-3.6,3.6-3.6h29.8c2,0,3.6,1.6,3.6,3.6
			C276.8,122.4,275.2,124,273.2,124z"/>
	</g>
</g>
</svg>
