<?xml version="1.0" encoding="UTF-8" standalone="no"?>
<svg
   xmlns:dc="http://purl.org/dc/elements/1.1/"
   xmlns:cc="http://creativecommons.org/ns#"
   xmlns:rdf="http://www.w3.org/1999/02/22-rdf-syntax-ns#"
   xmlns:svg="http://www.w3.org/2000/svg"
   xmlns="http://www.w3.org/2000/svg"
   xml:space="preserve"
   enable-background="new 50 866.9 500 350"
   viewBox="50 866.9 500 350"
   y="0px"
   x="0px"
   id="Capa_2"
   version="1.1"><metadata
     id="metadata63"><rdf:RDF><cc:Work
         rdf:about=""><dc:format>image/svg+xml</dc:format><dc:type
           rdf:resource="http://purl.org/dc/dcmitype/StillImage" /><dc:title></dc:title></cc:Work></rdf:RDF></metadata><defs
     id="defs61" /><path
     id="path2"
     d="  M238.3,993.8c0,17.7-31.8,55.3-31.8,55.3s-31.8-38.1-31.8-55.3s14.1-31.8,31.8-31.8S238.3,976,238.3,993.8z"
     stroke-miterlimit="10"
     stroke-linejoin="round"
     stroke-linecap="round"
     stroke-width="5"
     stroke="#FFFFFF"
     fill="none" /><circle
     id="circle4"
     r="12"
     cy="991.2"
     cx="205.4"
     stroke-miterlimit="10"
     stroke-linejoin="round"
     stroke-linecap="round"
     stroke-width="5"
     stroke="#FFFFFF"
     fill="none" /><g
     id="g10"><path
       id="path6"
       d="   M475.2,1132.8c0,17.7-31.8,55.3-31.8,55.3s-31.8-37.6-31.8-55.3c0-17.7,14.1-31.8,31.8-31.8S475.2,1115.6,475.2,1132.8z"
       stroke-miterlimit="10"
       stroke-linejoin="round"
       stroke-linecap="round"
       stroke-width="5"
       stroke="#FFFFFF"
       fill="none" /><circle
       id="circle8"
       r="12"
       cy="1132.8"
       cx="443.4"
       stroke-miterlimit="10"
       stroke-linejoin="round"
       stroke-linecap="round"
       stroke-width="5"
       stroke="#FFFFFF"
       fill="none" /></g><g
     id="g16"><path
       id="path12"
       d="   M206.5,1049.1c0,0,57.4,0,113.2,0s55.8,69.4,0,69.4h-34.4"
       stroke-miterlimit="10"
       stroke-linejoin="round"
       stroke-linecap="round"
       stroke-width="5"
       stroke="#FFFFFF"
       fill="none" /><path
       id="path14"
       d="   M443.4,1187.8c0,0-140.4,0-196.7,0c-55.8,0-55.8-69.4,0-69.4H291"
       stroke-miterlimit="10"
       stroke-linejoin="round"
       stroke-linecap="round"
       stroke-width="5"
       stroke="#FFFFFF"
       fill="none" /></g><g
     id="g30"><path
       id="path18"
       d="   M396.9,1066.3c0,0,7.3,8.9,4.7,13c-2.6,4.2-14.1,2.1-14.1,2.1"
       stroke-miterlimit="10"
       stroke-linejoin="round"
       stroke-linecap="round"
       stroke-width="5"
       stroke="#FFFFFF"
       fill="none" /><path
       id="path20"
       d="   M396.9,1066.3c0,0-7.3-8.9-4.7-13c2.6-4.2,14.1-2.1,14.1-2.1"
       stroke-miterlimit="10"
       stroke-linejoin="round"
       stroke-linecap="round"
       stroke-width="5"
       stroke="#FFFFFF"
       fill="none" /><path
       id="path22"
       d="   M415.7,1036c0,0,7.3,8.9,4.7,13c-2.6,4.2-14.1,2.1-14.1,2.1"
       stroke-miterlimit="10"
       stroke-linejoin="round"
       stroke-linecap="round"
       stroke-width="5"
       stroke="#FFFFFF"
       fill="none" /><path
       id="path24"
       d="   M415.7,1036c0,0-7.3-8.9-4.7-13c2.6-4.2,14.1-2.1,14.1-2.1"
       stroke-miterlimit="10"
       stroke-linejoin="round"
       stroke-linecap="round"
       stroke-width="5"
       stroke="#FFFFFF"
       fill="none" /><g
       id="g28"><path
         id="path26"
         d="    M434.5,1005.8c0,0,7.3,8.9,4.7,13c-2.6,4.2-14.1,2.1-14.1,2.1"
         stroke-miterlimit="10"
         stroke-linejoin="round"
         stroke-linecap="round"
         stroke-width="5"
         stroke="#FFFFFF"
         fill="none" /></g></g><circle
     id="circle32"
     r="20.9"
     cy="914.5"
     cx="270.1"
     stroke-miterlimit="10"
     stroke-linejoin="round"
     stroke-linecap="round"
     stroke-width="5"
     stroke="#FFFFFF"
     fill="none" /><circle
     id="circle34"
     r="23.5"
     cy="955.7"
     cx="104.7"
     stroke-miterlimit="10"
     stroke-linejoin="round"
     stroke-linecap="round"
     stroke-width="5"
     stroke="#FFFFFF"
     fill="none" /><circle
     id="circle36"
     r="8.9"
     cy="1012.6"
     cx="128.2"
     stroke-miterlimit="10"
     stroke-linejoin="round"
     stroke-linecap="round"
     stroke-width="5"
     stroke="#FFFFFF"
     fill="none" /><circle
     id="circle38"
     r="12"
     cy="1059"
     cx="499.7"
     stroke-miterlimit="10"
     stroke-linejoin="round"
     stroke-linecap="round"
     stroke-width="5"
     stroke="#FFFFFF"
     fill="none" /><circle
     id="circle40"
     r="18.3"
     cy="935.3"
     cx="504.4"
     stroke-miterlimit="10"
     stroke-linejoin="round"
     stroke-linecap="round"
     stroke-width="5"
     stroke="#FFFFFF"
     fill="none" /><circle
     id="circle42"
     r="12"
     cy="979.2"
     cx="403.2"
     stroke-miterlimit="10"
     stroke-linejoin="round"
     stroke-linecap="round"
     stroke-width="5"
     stroke="#FFFFFF"
     fill="none" /><g
     id="g56"><path
       id="path44"
       d="   M164.7,1112.3c0,0,10.9-3.5,13.9,0.4s-3.2,13.9-3.2,13.9"
       stroke-miterlimit="10"
       stroke-linejoin="round"
       stroke-linecap="round"
       stroke-width="5"
       stroke="#FFFFFF"
       fill="none" /><path
       id="path46"
       d="   M164.7,1112.3c0,0-10.9,3.5-13.9-0.4s3.2-13.9,3.2-13.9"
       stroke-miterlimit="10"
       stroke-linejoin="round"
       stroke-linecap="round"
       stroke-width="5"
       stroke="#FFFFFF"
       fill="none" /><path
       id="path48"
       d="   M143.5,1083.7c0,0,10.9-3.5,13.9,0.4c2.9,4-3.2,13.9-3.2,13.9"
       stroke-miterlimit="10"
       stroke-linejoin="round"
       stroke-linecap="round"
       stroke-width="5"
       stroke="#FFFFFF"
       fill="none" /><path
       id="path50"
       d="   M143.5,1083.7c0,0-10.9,3.5-13.9-0.4c-2.9-4,3.2-13.9,3.2-13.9"
       stroke-miterlimit="10"
       stroke-linejoin="round"
       stroke-linecap="round"
       stroke-width="5"
       stroke="#FFFFFF"
       fill="none" /><g
       id="g54"><path
         id="path52"
         d="    M122.3,1055.1c0,0,10.9-3.5,13.9,0.4c2.9,4-3.2,13.9-3.2,13.9"
         stroke-miterlimit="10"
         stroke-linejoin="round"
         stroke-linecap="round"
         stroke-width="5"
         stroke="#FFFFFF"
         fill="none" /></g></g></svg>