<?xml version="1.0" encoding="utf-8"?>
<!-- Generator: Adobe Illustrator 18.0.0, SVG Export Plug-In . SVG Version: 6.00 Build 0)  -->
<!DOCTYPE svg PUBLIC "-//W3C//DTD SVG 1.1//EN" "http://www.w3.org/Graphics/SVG/1.1/DTD/svg11.dtd">
<svg version="1.1" id="Capa_2" xmlns="http://www.w3.org/2000/svg" xmlns:xlink="http://www.w3.org/1999/xlink" x="0px" y="0px"
	 viewBox="0 0 120 90" enable-background="new 0 0 120 90" xml:space="preserve">
<path fill="none" stroke="#FFFFFF" stroke-linecap="round" stroke-linejoin="round" stroke-miterlimit="10" d="M43.8,28.3
	c0,3.4-6.1,10.6-6.1,10.6s-6.1-7.3-6.1-10.6s2.7-6.1,6.1-6.1S43.8,24.9,43.8,28.3z"/>
<circle fill="none" stroke="#FFFFFF" stroke-linecap="round" stroke-linejoin="round" stroke-miterlimit="10" cx="37.5" cy="27.8" r="2.3"/>
<g>
	<path fill="none" stroke="#FFFFFF" stroke-linecap="round" stroke-linejoin="round" stroke-miterlimit="10" d="M89.2,54.9
		c0,3.4-6.1,10.6-6.1,10.6S77,58.3,77,54.9c0-3.4,2.7-6.1,6.1-6.1C86.5,48.8,89.2,51.6,89.2,54.9z"/>
	
		<circle fill="none" stroke="#FFFFFF" stroke-linecap="round" stroke-linejoin="round" stroke-miterlimit="10" cx="83.1" cy="54.9" r="2.3"/>
</g>
<g>
	<path fill="none" stroke="#FFFFFF" stroke-linecap="round" stroke-linejoin="round" stroke-miterlimit="10" d="M37.7,38.9
		c0,0,11,0,21.7,0s10.7,13.3,0,13.3h-6.6"/>
	<path fill="none" stroke="#FFFFFF" stroke-linecap="round" stroke-linejoin="round" stroke-miterlimit="10" d="M83.1,65.6
		c0,0-26.9,0-37.7,0c-10.7,0-10.7-13.3,0-13.3l8.5,0"/>
</g>
<g>
	<path fill="none" stroke="#FFFFFF" stroke-linecap="round" stroke-linejoin="round" stroke-miterlimit="10" d="M62.4,26.6
		c0,0,1.6,1.4,1.3,2.3c-0.3,0.9-2.5,0.9-2.5,0.9"/>
	<path fill="none" stroke="#FFFFFF" stroke-linecap="round" stroke-linejoin="round" stroke-miterlimit="10" d="M62.4,26.6
		c0,0-1.6-1.4-1.3-2.3c0.3-0.9,2.5-0.9,2.5-0.9"/>
	<path fill="none" stroke="#FFFFFF" stroke-linecap="round" stroke-linejoin="round" stroke-miterlimit="10" d="M64.9,20.2
		c0,0,1.6,1.4,1.3,2.3c-0.3,0.9-2.5,0.9-2.5,0.9"/>
	<path fill="none" stroke="#FFFFFF" stroke-linecap="round" stroke-linejoin="round" stroke-miterlimit="10" d="M64.9,20.2
		c0,0-1.6-1.4-1.3-2.3c0.3-0.9,2.5-0.9,2.5-0.9"/>
	<g>
		<path fill="none" stroke="#FFFFFF" stroke-linecap="round" stroke-linejoin="round" stroke-miterlimit="10" d="M67.3,13.7
			c0,0,1.6,1.4,1.3,2.3s-2.5,0.9-2.5,0.9"/>
	</g>
</g>
<g>
	<path fill="none" stroke="#FFFFFF" stroke-linecap="round" stroke-linejoin="round" stroke-miterlimit="10" d="M74.4,42.3
		c0,0,1.4,1.7,0.9,2.5c-0.5,0.8-2.7,0.4-2.7,0.4"/>
	<path fill="none" stroke="#FFFFFF" stroke-linecap="round" stroke-linejoin="round" stroke-miterlimit="10" d="M74.4,42.3
		c0,0-1.4-1.7-0.9-2.5c0.5-0.8,2.7-0.4,2.7-0.4"/>
	<path fill="none" stroke="#FFFFFF" stroke-linecap="round" stroke-linejoin="round" stroke-miterlimit="10" d="M77.8,36.4
		c0,0,1.4,1.7,0.9,2.5c-0.5,0.8-2.7,0.4-2.7,0.4"/>
	<path fill="none" stroke="#FFFFFF" stroke-linecap="round" stroke-linejoin="round" stroke-miterlimit="10" d="M77.8,36.4
		c0,0-1.4-1.7-0.9-2.5c0.5-0.8,2.7-0.4,2.7-0.4"/>
	<g>
		<path fill="none" stroke="#FFFFFF" stroke-linecap="round" stroke-linejoin="round" stroke-miterlimit="10" d="M81.3,30.4
			c0,0,1.4,1.7,0.9,2.5c-0.5,0.8-2.7,0.4-2.7,0.4"/>
	</g>
</g>
<g>
	<path fill="none" stroke="#FFFFFF" stroke-linecap="round" stroke-linejoin="round" stroke-miterlimit="10" d="M28.3,51.8
		c0,0,2.1-0.2,2.6,0.7c0.4,0.9-1.1,2.4-1.1,2.4"/>
	<path fill="none" stroke="#FFFFFF" stroke-linecap="round" stroke-linejoin="round" stroke-miterlimit="10" d="M28.3,51.8
		c0,0-2.1,0.2-2.6-0.7s1.1-2.4,1.1-2.4"/>
	<path fill="none" stroke="#FFFFFF" stroke-linecap="round" stroke-linejoin="round" stroke-miterlimit="10" d="M25.3,45.6
		c0,0,2.1-0.2,2.6,0.7c0.4,0.9-1.1,2.4-1.1,2.4"/>
	<path fill="none" stroke="#FFFFFF" stroke-linecap="round" stroke-linejoin="round" stroke-miterlimit="10" d="M25.3,45.6
		c0,0-2.1,0.2-2.6-0.7c-0.4-0.9,1.1-2.4,1.1-2.4"/>
	<g>
		<path fill="none" stroke="#FFFFFF" stroke-linecap="round" stroke-linejoin="round" stroke-miterlimit="10" d="M22.3,39.3
			c0,0,2.1-0.2,2.6,0.7c0.4,0.9-1.1,2.4-1.1,2.4"/>
	</g>
</g>
<circle fill="none" stroke="#FFFFFF" stroke-linecap="round" stroke-linejoin="round" stroke-miterlimit="10" cx="49.9" cy="13.1" r="4"/>
<circle fill="none" stroke="#FFFFFF" stroke-linecap="round" stroke-linejoin="round" stroke-miterlimit="10" cx="18.2" cy="21" r="4.5"/>
<circle fill="none" stroke="#FFFFFF" stroke-linecap="round" stroke-linejoin="round" stroke-miterlimit="10" cx="22.7" cy="31.9" r="1.7"/>
<circle fill="none" stroke="#FFFFFF" stroke-linecap="round" stroke-linejoin="round" stroke-miterlimit="10" cx="93.9" cy="40.8" r="2.3"/>
<circle fill="none" stroke="#FFFFFF" stroke-linecap="round" stroke-linejoin="round" stroke-miterlimit="10" cx="94.8" cy="17.1" r="3.5"/>
<circle fill="none" stroke="#FFFFFF" stroke-linecap="round" stroke-linejoin="round" stroke-miterlimit="10" cx="75.4" cy="25.5" r="2.3"/>
</svg>
