<?xml version="1.0" encoding="utf-8"?>
<!-- Generator: Adobe Illustrator 18.0.0, SVG Export Plug-In . SVG Version: 6.00 Build 0)  -->
<!DOCTYPE svg PUBLIC "-//W3C//DTD SVG 1.1//EN" "http://www.w3.org/Graphics/SVG/1.1/DTD/svg11.dtd">
<svg version="1.1" id="Capa_1" xmlns="http://www.w3.org/2000/svg" xmlns:xlink="http://www.w3.org/1999/xlink" x="0px" y="0px"
	 viewBox="0 0 500 500" enable-background="new 0 0 500 500" xml:space="preserve">
<rect x="-4.1" fill="#333333" width="504.1" height="500"/>
<g>
	<g>
		<circle fill="#FFFFFF" cx="291.7" cy="315.9" r="34.8"/>
	</g>
	<g>
		<circle fill="#FFFFFF" cx="132.4" cy="315.9" r="34.8"/>
	</g>
	<g>
		<path fill="#FFFFFF" d="M150.4,295.2c-0.7,0-1.4-0.2-2.1-0.7c-1.6-1.1-1.9-3.3-0.8-4.9l23.4-32.5c1.1-1.6,3.3-1.9,4.9-0.8
			c1.6,1.1,1.9,3.3,0.8,4.9l-23.4,32.5C152.6,294.6,151.5,295.2,150.4,295.2z"/>
	</g>
	<g>
		<path fill="#FFFFFF" d="M273.7,295.2c-1.1,0-2.2-0.5-2.9-1.5l-23.4-32.5c-1.1-1.6-0.8-3.8,0.8-4.9c1.6-1.1,3.8-0.8,4.9,0.8
			l23.4,32.5c1.1,1.6,0.8,3.8-0.8,4.9C275.1,294.9,274.4,295.2,273.7,295.2z"/>
	</g>
	<g>
		<path fill="#FFFFFF" d="M212,159.1c-33.1,0-59.9,26.8-59.9,59.9c0,33.1,26.8,59.9,59.9,59.9c33.1,0,59.9-26.8,59.9-59.9
			C271.9,185.9,245.1,159.1,212,159.1z M182.2,225c-5,0-9.1-4.1-9.1-9.1c0-5,4.1-9.1,9.1-9.1c5,0,9.1,4.1,9.1,9.1
			C191.3,220.9,187.3,225,182.2,225z M230.3,241.5c-2.8,8-10.1,13.4-18.3,13.4c-8.2,0-15.5-5.4-18.3-13.4c-0.6-1.8,0.3-3.9,2.2-4.5
			c1.8-0.6,3.9,0.3,4.5,2.2c1.8,5.2,6.5,8.7,11.6,8.7c5.2,0,9.8-3.5,11.6-8.7c0.6-1.8,2.6-2.8,4.5-2.2
			C230,237.7,231,239.7,230.3,241.5z M241.9,225c-5,0-9.1-4.1-9.1-9.1c0-5,4.1-9.1,9.1-9.1s9.1,4.1,9.1,9.1
			C251,220.9,246.9,225,241.9,225z"/>
	</g>
</g>
<g>
	<path fill="#FFFFFF" d="M246.4,106.7v0.5c-0.2,2.5-1.1,4.4-2.9,5.7c-1.8,1.3-4.3,2-7.4,2c-0.7,0-1.2,0-1.5,0c0,0.2,0,0.5,0,1v1.4
		c0,0.9,0,3.1,0.1,6.5v0l-0.1,0c-0.6,0.1-1.3,0.2-2.1,0.2c-0.6,0-1.1,0-1.7-0.1c-0.1-1.6-0.1-4.2-0.1-7.9v-7c0-3.6,0-6.8-0.1-9.4
		c1.6-0.4,3.3-0.7,5.2-0.7c2.9,0,5.3,0.6,7.4,1.9C245.1,102,246.2,104,246.4,106.7z M242.9,105.9c-0.3-1.2-0.8-2-1.5-2.4
		c-0.7-0.4-1.3-0.8-2-1c-0.7-0.2-1.5-0.3-2.5-0.3c-1.3,0-2.3,0.1-3,0.2c0,0.3,0,0.6,0,1v1.7v1.9c0,2.3,0.1,3.8,0.2,4.4
		c1.4,0,2.8-0.1,4-0.2c1.2-0.1,2.3-0.5,3.4-1.1c1-0.6,1.6-1.6,1.6-2.9C243.1,106.9,243.1,106.4,242.9,105.9z"/>
	<path fill="#FFFFFF" d="M259.9,100.4c1.1-0.1,1.8-0.2,2.2-0.2c0.6,0,1,0.1,1.3,0.2c0.1,2.5,0.2,4.8,0.2,6.8c0,4-0.2,7.9-0.6,11.5
		c-0.2,1.6-0.8,2.9-1.8,4c-1,1.1-2.3,1.7-4,1.8c-0.3,0-0.6,0-1.1,0c-2.1,0-3.9-0.5-5.4-1.5c-1.5-1-2.3-2.5-2.4-4.5
		c0-0.9,0-2.3,0-4.1c0-1.9,0-3.3,0-4.3c0-2.6,0.1-4.6,0.1-5.9l0-4.2l0,0h0l1.7,0c0.7,0,1.2,0,1.7,0.1c0,0.4,0,1.1,0,1.9l0,1.4
		c-0.1,2.3-0.1,4.2-0.1,5.9c0,2.4,0.1,4.4,0.3,6c0.2,1.6,0.5,3,1,4.3c0.4,0.6,0.9,1,1.6,1.2c0.5,0.1,0.9,0.2,1.2,0.2
		c0.6,0,1.2-0.1,1.7-0.4c0.5-0.2,0.9-0.6,1.2-1.1c0.5-1.2,0.9-2.8,1.1-4.6c0.2-1.8,0.3-4,0.3-6.5l0-5.4
		C259.9,101.8,259.9,100.9,259.9,100.4z"/>
	<path fill="#FFFFFF" d="M280.9,120.9L280.9,120.9c0,1.3,0,2.3-0.2,3c-1.1,0-2.9,0-5.2,0c-1.8,0-3.2,0.1-4.2,0.1
		c-2,0-3.7-0.1-5.1-0.2c0-2.7,0-5.3-0.1-7.9c0-3.5-0.1-6.1-0.1-7.8c0-3.4,0.1-6.2,0.2-8.5c4.4-0.2,8.4-0.3,12-0.3
		c1.7,0,2.6,0,2.6,0.1c0,0.2,0,0.4,0,0.8c0,0.5,0,0.8,0,1l0,1.1v0.4c-1.7,0.1-3.2,0.2-4.5,0.2h-1.9h-1.1c-1.4,0-2.5,0-3.5,0.1
		l-0.1,0c0,0.6,0,1.7-0.1,3.2c0,1.2-0.1,1.9-0.1,2.2c0,0.7,0,1.3,0.1,1.6l0,0c1.1,0,2.3,0,3.6,0c1.1,0,2,0,2.6,0.1v0
		c0,0.4,0.1,0.8,0.1,1.5c0,0.2,0,0.5,0,0.7c0,0.3,0,0.6,0,0.9c-0.5,0-1,0.1-1.3,0.1c-0.3,0-0.7,0-1.1,0c-0.7,0-1.4,0-2,0
		c-1.1,0-1.6,0.1-1.8,0.2c-0.1,0.5-0.1,1.3-0.1,2.3c0,0.7,0,1.2,0,1.5c0,0.3,0,0.8,0,1.4c0,0.6,0,1.2,0,1.8l0,0c1.7,0,3.9,0,6.5,0.1
		c1.5,0,2.6,0.1,3.2,0.1L280.9,120.9z"/>
	<path fill="#FFFFFF" d="M291.7,99.3c0.8,0.2,1.5,0.6,2.2,1.1c0.7,0.5,1.3,1.2,1.7,1.9c0.7,1.1,1.2,2.3,1.7,3.6
		c0.4,1.3,0.7,2.6,0.8,3.8l-0.1,1.6c0,2.1-0.2,3.8-0.4,5c0,0.1-0.1,0.2-0.2,0.5c-0.1,0.3-0.3,0.6-0.4,0.9c-0.4,0.8-0.9,1.8-1.6,2.9
		c-0.7,1.1-1.5,2.2-2.3,3.2c-2.1,0.1-5.2,0.1-9.3,0.1l0,0c-0.4-2.9-0.6-6.7-0.6-11.3c0-2.1,0-3.7,0-4.7l0-4.8c0-1.5,0-2.6,0-3.4
		l0.1-0.1c1-0.3,2.4-0.4,4-0.4c0.8,0,1.4,0,1.7,0C289.8,99.3,290.7,99.3,291.7,99.3z M288.5,119.5c1.2,0,2-0.1,2.5-0.2
		c0.5-0.1,0.9-0.3,1.1-0.5c0.3-0.2,0.6-0.7,1.1-1.3c0.7-0.9,1.2-2.4,1.6-4.5c0-0.6,0.1-1,0.1-1.3s0-0.7-0.1-1.3
		c-0.1-1.2-0.4-2.4-0.8-3.3c-0.4-1-0.9-1.7-1.4-2.3c-0.5-0.6-1.1-0.9-1.6-1c-0.6,0-1-0.1-1.2-0.1c-0.6,0-1.8,0-3.4,0.1h-0.2
		c0.1,0.7,0.1,1.9,0.1,3.7c0,1.5,0,2.8-0.1,3.8l0,1.2c0,0.4,0,1.3,0.1,2.7l0.2,3.9C286.7,119.4,287.4,119.5,288.5,119.5z"/>
	<path fill="#FFFFFF" d="M302.4,100.4c1.4-0.7,3-1,4.8-1c1.6,0,3,0.3,4.3,0.9c1.3,0.6,2.1,1.6,2.6,2.9c0.4,1,0.7,2.3,0.7,4
		c0,0.8,0,1.3,0,1.7c0,0.8-0.1,2-0.1,3.6c0,0.4,0,0.9,0,1.5c0,0.6,0,1.3-0.1,2.1l-0.1,1.2c-0.2,2-0.6,3.6-1.3,4.8
		c-0.6,0.8-1.5,1.5-2.7,1.9c-1.2,0.4-2.5,0.6-3.8,0.6c-0.5,0-0.9,0-1.1,0c-1.8-0.1-3.1-0.7-4.1-1.6c-0.9-1-1.4-2.5-1.4-4.7l-0.1-2.2
		c0-0.5-0.1-1.3-0.1-2.5s-0.1-2.2-0.1-3.2c0-1.1,0-2.2,0.1-3.2c0-1.4,0.2-2.7,0.6-4C300.8,101.8,301.4,100.9,302.4,100.4z
		 M311.7,111.8l0-2.8c-0.1-1.6-0.2-2.7-0.2-3.3c-0.1-0.6-0.4-1.3-1.1-2.1c-0.6-0.8-1.7-1.2-3.1-1.2c-1.8,0-3,0.8-3.8,2.4
		c-0.7,1.6-1.1,4-1.1,7.2c0,2,0,3.5,0.1,4.6c0.1,1.1,0.3,2,0.5,2.6c0.3,0.7,0.7,1.2,1.2,1.6c0.6,0.4,1.4,0.6,2.4,0.6
		c1.7,0,2.9-0.3,3.6-1c0.8-0.7,1.2-1.7,1.2-3c0-0.7,0-1.5,0.1-2.5c0-1,0.1-1.6,0.1-1.9V111.8z"/>
	<path fill="#FFFFFF" d="M338.9,112.8l-0.1,11.3c-0.5-0.1-1.1-0.1-1.7-0.1l-1.5,0c-0.1-2-0.2-3.7-0.2-5.4c0-1.6,0-2.6,0-3
		c0-3.4,0-6.5-0.1-9.4c-0.1,0.2-0.3,0.5-0.5,0.9l-1.3,2.9c-0.2,0.3-0.7,1.5-1.5,3.4c-0.1,0.4-0.3,0.6-0.4,0.8
		c-0.1,0.2-0.2,0.3-0.2,0.3c-0.2-0.1-0.5-0.6-0.9-1.4c-0.4-0.8-0.9-1.9-1.6-3.5c-0.3-0.6-0.7-1.7-1.4-3.1c0,1.4,0,3.2,0,5.5
		c0,2.6,0,4.4,0,5.2c0,2,0.1,4.2,0.3,6.7c-0.5,0.1-1.2,0.1-2.3,0.1h-1.1c-0.1,0-0.2-0.4-0.2-1.1c0-0.7-0.1-2.3-0.1-4.6
		c0-3.2,0-9.3,0.1-18.5c0.4-0.1,0.8-0.1,1.3-0.1c0.5,0,0.9,0,1,0c0.4,0,0.8,0,1,0h0c0.1,0.1,0.4,0.7,0.9,1.9c0.1,0.2,0.4,0.9,1,2.1
		c0.6,1.3,1.2,2.6,2,4c0.1,0,0.4-0.8,1-2.2c0.1-0.2,0.3-0.8,0.6-1.6c0.3-0.8,0.7-1.6,1.1-2.5c0.4-0.9,0.7-1.5,1-1.9
		c0.2,0,0.8,0,1.9,0c0.8,0,1.4-0.1,1.8-0.1c0,1.3-0.1,2.2-0.1,2.9c0,0.8,0,2,0.1,3.6l0,3.5C339,110.9,339,112,338.9,112.8z"/>
	<path fill="#FFFFFF" d="M350.3,99.2c2.3,10.2,4.2,18.5,5.5,24.8v0c-0.5,0.1-1,0.1-1.5,0.1c-0.3,0-0.5,0-0.8-0.1
		c-0.4,0-0.6-0.1-0.8-0.1h0c-0.2-0.5-0.4-1.3-0.7-2.4c-0.4-1.4-0.7-2.5-1-3.4c-1.1,0-2.5-0.1-4.3-0.1h-1.5c0,0-0.1,0.5-0.2,1.4
		c-0.2,1.3-0.4,2.4-0.6,3.2c-0.2,0.8-0.4,1.3-0.6,1.3c0,0-0.2,0-0.4,0c-0.2,0-0.5,0-0.9,0c-0.5,0-1,0-1.6,0h-0.4v0
		c0.1-0.1,0.2-0.8,0.3-1.9c0.6-3.7,1.3-7.5,2.1-11.3c0.8-3.8,1.8-7.6,3.2-11.5c0.1,0,0.3,0,0.6,0h0.8
		C348.4,99.3,349.3,99.3,350.3,99.2z M347.1,115.3c1.5,0,2.8,0,4,0c-1.3-7.4-2.1-11.2-2.4-11.5c-0.2-0.1-0.4-0.1-0.5-0.1
		c-0.3,0-0.5,0.2-0.7,0.7c-0.2,0.5-0.4,1.5-0.8,3.1c-0.3,1.6-0.7,3.6-1.2,6.1l-0.3,1.8h0.7C346.4,115.3,346.8,115.3,347.1,115.3z"/>
	<path fill="#FFFFFF" d="M354.5,99.2c1.4,0,2.4,0,3.1,0l3.3,0c3.4,0,6.3,0.1,8.5,0.4c0,0.2,0,0.6,0,1.1c0,0.8-0.1,1.6-0.2,2.5
		c-0.5-0.1-1.2-0.1-2.2-0.1c-0.8,0-1.5,0.1-2.3,0.1h-0.9c0,0.1,0,0.3,0,0.4c0,0.1,0,1.7,0,4.8c0,0.7,0,1.3,0,1.8
		c0.1,6.2,0.1,10.8,0.2,13.7v0.1c-0.4,0.1-1.1,0.1-1.9,0.1c-0.9,0-1.6,0-2.1,0.1c0-0.1,0-0.3,0-0.5c0-0.2,0-0.5,0-0.8v-2.2
		c0-0.5,0-1.3,0-2.5c0-1.4,0-2.5,0-3.4c0-3.4-0.1-7.2-0.2-11.4v-0.1c-0.5-0.1-1.8-0.2-3.9-0.3c-0.8,0-1.2,0-1.2,0
		c-0.1-0.1-0.1-0.6-0.1-1.3C354.5,100.9,354.5,100.1,354.5,99.2z"/>
	<path fill="#FFFFFF" d="M378.1,99.2c2.3,10.2,4.2,18.5,5.5,24.8v0c-0.5,0.1-1,0.1-1.5,0.1c-0.3,0-0.5,0-0.8-0.1
		c-0.4,0-0.6-0.1-0.8-0.1h0c-0.2-0.5-0.4-1.3-0.7-2.4c-0.4-1.4-0.7-2.5-1-3.4c-1.1,0-2.5-0.1-4.3-0.1H373c0,0-0.1,0.5-0.2,1.4
		c-0.2,1.3-0.4,2.4-0.6,3.2c-0.2,0.8-0.4,1.3-0.6,1.3c0,0-0.2,0-0.4,0c-0.2,0-0.5,0-0.9,0c-0.5,0-1,0-1.6,0h-0.4v0
		c0.1-0.1,0.2-0.8,0.3-1.9c0.6-3.7,1.3-7.5,2.1-11.3c0.8-3.8,1.8-7.6,3.2-11.5c0.1,0,0.3,0,0.6,0h0.8
		C376.1,99.3,377.1,99.3,378.1,99.2z M374.8,115.3c1.5,0,2.8,0,4,0c-1.3-7.4-2.1-11.2-2.4-11.5c-0.2-0.1-0.4-0.1-0.5-0.1
		c-0.3,0-0.5,0.2-0.7,0.7c-0.2,0.5-0.4,1.5-0.8,3.1c-0.3,1.6-0.7,3.6-1.2,6.1l-0.3,1.8h0.7C374.2,115.3,374.6,115.3,374.8,115.3z"/>
	<path fill="#FFFFFF" d="M401.7,123.9l-1.8,0c-1.1,0-1.8,0.1-2.3,0c-0.5-0.6-1-1.2-1.5-1.9c-1.3-1.6-2.4-2.9-3.1-3.8
		c-0.8-0.9-1.6-1.8-2.5-2.6l-1.7-1.4c0,0.8-0.1,1.6-0.1,2.3v1.2c0,2,0.1,4.1,0.2,6c-0.6,0.2-1.4,0.3-2.3,0.3c-0.4,0-0.8,0-1.1,0
		c-0.3,0-0.6,0-0.7,0c0.1,0,0.1-2.1,0.1-6.2c0-3.8,0-7.7-0.1-11.5c-0.1-3.9-0.2-6.2-0.3-6.9c1.5-0.2,2.8-0.4,3.7-0.5
		c0.9-0.1,1.9-0.2,3-0.2c0.9,0,1.8,0,2.6,0.1c1.4,0.1,2.6,0.5,3.7,1.2c1.1,0.7,2,1.6,2.6,2.8c0.6,1.1,1,2.3,1,3.6s-0.4,2.5-1.1,3.7
		c-0.4,0.8-0.8,1.3-1.3,1.7c-0.5,0.4-1.2,0.7-2.2,0.9c-1,0.2-2.4,0.3-4.2,0.3l2.2,2.5c1.2,1.3,2.3,2.5,3.2,3.6
		C398.7,120.3,400,121.8,401.7,123.9L401.7,123.9z M392.5,110.1c1,0,1.8,0,2.4-0.1c1.6-0.3,2.5-1.5,2.5-3.7c0-1.4-0.5-2.4-1.5-3.2
		c-1-0.7-2.3-1.1-3.9-1.1c-1.1,0-2.4,0.1-4,0.4c0.2,0.8,0.2,2.1,0.2,3.7l0,2.4c0,0.6,0,1.1,0.1,1.4h0
		C390.1,110,391.5,110.1,392.5,110.1z"/>
	<path fill="#FFFFFF" d="M402.1,99.2c1.4,0,2.4,0,3.1,0l3.3,0c3.4,0,6.3,0.1,8.5,0.4c0,0.2,0,0.6,0,1.1c0,0.8-0.1,1.6-0.2,2.5
		c-0.5-0.1-1.2-0.1-2.2-0.1c-0.8,0-1.5,0.1-2.3,0.1h-0.9c0,0.1,0,0.3,0,0.4c0,0.1,0,1.7,0,4.8c0,0.7,0,1.3,0,1.8
		c0.1,6.2,0.1,10.8,0.2,13.7v0.1c-0.4,0.1-1.1,0.1-1.9,0.1c-0.9,0-1.6,0-2.1,0.1c0-0.1,0-0.3,0-0.5c0-0.2,0-0.5,0-0.8v-2.2
		c0-0.5,0-1.3,0-2.5c0-1.4,0-2.5,0-3.4c0-3.4-0.1-7.2-0.2-11.4v-0.1c-0.5-0.1-1.8-0.2-3.9-0.3c-0.8,0-1.2,0-1.2,0
		c-0.1-0.1-0.1-0.6-0.1-1.3C402.1,100.9,402.1,100.1,402.1,99.2z"/>
	<path fill="#FFFFFF" d="M433.6,120.9L433.6,120.9c0,1.3,0,2.3-0.2,3c-1.1,0-2.9,0-5.2,0c-1.8,0-3.2,0.1-4.2,0.1
		c-2,0-3.7-0.1-5.1-0.2c0-2.7,0-5.3-0.1-7.9c0-3.5-0.1-6.1-0.1-7.8c0-3.4,0.1-6.2,0.2-8.5c4.4-0.2,8.4-0.3,12-0.3
		c1.7,0,2.6,0,2.6,0.1c0,0.2,0,0.4,0,0.8c0,0.5,0,0.8,0,1l0,1.1v0.4c-1.7,0.1-3.2,0.2-4.5,0.2h-1.9h-1.1c-1.4,0-2.5,0-3.5,0.1
		l-0.1,0c0,0.6,0,1.7-0.1,3.2c0,1.2-0.1,1.9-0.1,2.2c0,0.7,0,1.3,0.1,1.6l0,0c1.1,0,2.3,0,3.6,0c1.1,0,2,0,2.6,0.1v0
		c0,0.4,0.1,0.8,0.1,1.5c0,0.2,0,0.5,0,0.7c0,0.3,0,0.6,0,0.9c-0.5,0-1,0.1-1.3,0.1c-0.3,0-0.7,0-1.1,0c-0.7,0-1.4,0-2,0
		c-1.1,0-1.6,0.1-1.8,0.2c-0.1,0.5-0.1,1.3-0.1,2.3c0,0.7,0,1.2,0,1.5c0,0.3,0,0.8,0,1.4c0,0.6,0,1.2,0,1.8l0,0c1.7,0,3.9,0,6.5,0.1
		c1.5,0,2.6,0.1,3.2,0.1L433.6,120.9z"/>
</g>
<g>
	<path fill="#FFFFFF" d="M200.4,402.2c0,0.5,0,1.4,0.1,2.7v1.1H196c-0.4-0.8-0.9-1.7-1.4-2.6c-0.5-0.9-0.9-1.8-1.4-2.7
		c-0.4-0.8-1.6-3-3.4-6.6c-1.8-3.6-3.5-7-5.1-10.3c-0.2-0.4-0.4-0.8-0.5-1.2c-0.2-0.4-0.3-0.7-0.4-0.7c-0.1-0.1-0.1,0-0.2,0.2v1.5
		c0,1,0,2.8,0,5.3c0,2.6,0,6.6,0,12.1v1.4c0,1.7,0,2.9,0.1,3.6c-0.6,0.1-1.2,0.2-1.8,0.2c-0.4,0-0.9,0-1.6-0.1
		c-0.8-0.1-1.5-0.1-1.9-0.1v-3.7c0-2.3,0-5.5-0.1-9.6l-0.1-9.5c0-5.6,0.2-10.3,0.5-14.2c0.4-0.1,0.8-0.1,1.1-0.1l0.9,0.1
		c1.8,0.1,2.7,0.2,2.7,0.4c0.4,1,0.9,2.1,1.4,3.1c0.5,1.1,1.2,2.3,1.9,3.7c1.7,3.1,3.5,6.8,5.5,10.9c1.9,4.1,3.1,6.7,3.5,7.9
		c0-1.4,0-3.7-0.2-6.9l-0.1-3.5c-0.1-3.9-0.1-6.7-0.2-8.4l-0.1-2.9v-1.7v-2.8c0.8-0.1,1.7-0.2,2.6-0.2c1.1,0.1,2,0.2,2.5,0.3v17
		c0,2,0.1,5,0.1,9.1l-0.1,5.9C200.4,401,200.4,401.5,200.4,402.2z"/>
	<path fill="#FFFFFF" d="M208.3,370.4c2.1-1,4.5-1.5,7.2-1.5c2.4,0,4.5,0.5,6.4,1.4c1.9,0.9,3.2,2.4,3.8,4.3c0.7,1.5,1,3.5,1,6
		c0,1.1,0,2-0.1,2.5c-0.1,1.2-0.1,3.1-0.1,5.5c0,0.6,0,1.4,0,2.3c0,0.9-0.1,2-0.1,3.2l-0.2,1.7c-0.2,3-0.9,5.4-2,7.1
		c-0.9,1.3-2.3,2.2-4.1,2.9c-1.8,0.6-3.7,1-5.7,1c-0.7,0-1.3,0-1.6-0.1c-2.7-0.2-4.7-1-6.1-2.5c-1.4-1.4-2.1-3.8-2.2-7.1l-0.2-3.3
		c0-0.7-0.1-1.9-0.2-3.7c-0.1-1.7-0.1-3.3-0.1-4.8c0-1.6,0.1-3.2,0.2-4.8c0-2.1,0.4-4.1,1-6S206.9,371.2,208.3,370.4z M222.2,387.6
		l-0.1-4.2c-0.1-2.4-0.3-4-0.4-4.9c-0.1-0.9-0.6-1.9-1.6-3.1c-1-1.2-2.5-1.8-4.7-1.8c-2.7,0-4.6,1.2-5.6,3.5
		c-1.1,2.4-1.6,6-1.6,10.8c0,3,0.1,5.3,0.2,6.9s0.4,3,0.8,4c0.4,1,1,1.8,1.8,2.4c0.8,0.6,2.1,0.9,3.7,0.9c2.5,0,4.3-0.5,5.5-1.5
		c1.1-1,1.7-2.5,1.9-4.5c0-1.1,0-2.3,0.1-3.8c0.1-1.4,0.1-2.4,0.2-2.8V387.6z"/>
	<path fill="#FFFFFF" d="M252.6,405.7l-14.3,0.3l-6,0.1h-2.4c0,0-0.1-0.1-0.1-0.2l0.1-1.6c0-2.1,0.2-3.8,0.5-5.1
		c0.3-1.3,1-2.7,2.1-4.1c1.1-1.2,2.4-2.3,3.8-3.3c1.4-1,3.2-2.2,5.5-3.6c0.4-0.2,0.8-0.5,1.3-0.8c0.5-0.3,0.9-0.6,1.4-0.9
		c2.1-1.1,3.2-2.5,3.3-4.2l0.1-1.2c0-2.8-0.5-4.6-1.5-5.6c-1-1-2.3-1.5-3.9-1.5c-0.1,0-0.9,0.1-2.4,0.2c-1.5,0.2-2.6,1-3.4,2.4
		c-0.7,1.4-1.1,3-1.1,4.7l0.1,1.9v0.4l-0.1,0.1c-1.3,0.2-2.4,0.3-3.5,0.3c-0.4,0-1,0-1.9-0.1l-0.1-0.1c-0.2-1.2-0.3-2.3-0.3-3.4
		c0-3.6,1-6.5,3-8.8c0.8-1.1,2.1-1.9,3.8-2.4c1.7-0.5,3.5-0.8,5.5-0.8c2.3,0,4.3,0.3,5.9,1c2.1,1.1,3.6,2.8,4.3,5.2s1.1,5.2,1,8.4
		c-0.1,1.5-0.6,2.8-1.3,3.8c-0.7,1-1.6,1.9-2.6,2.6c-1,0.7-2.3,1.5-4,2.4c-1.4,0.7-2.6,1.4-3.4,1.9c-0.9,0.5-1.7,1.2-2.4,1.9
		c-0.9,1-1.7,1.9-2.3,2.6c-0.6,0.8-1,1.4-1,1.9c0,0.2,0.1,0.4,0.3,0.5c2.6,0.1,4.9,0.1,6.8,0.1c1.8,0,4.2-0.1,7.1-0.2l1.7-0.1
		c0.2,0.6,0.3,1.4,0.3,2.2l-0.1,1.7c0,0.5,0,0.7,0,0.7S252.5,405.2,252.6,405.7z"/>
</g>
<g>
	<path fill="#FFFFFF" d="M304.2,175.7c-0.5,0-1-0.2-1.4-0.5c-0.8-0.6-1.1-1.5-0.9-2.4l6.3-26.8c0.3-1.3,1.6-2.1,2.8-1.8
		c1.3,0.3,2.1,1.6,1.8,2.8l-5,21.4l22-13c1.1-0.7,2.6-0.3,3.2,0.8c0.7,1.1,0.3,2.6-0.8,3.2l-26.8,15.8
		C305,175.6,304.6,175.7,304.2,175.7z"/>
</g>
</svg>
