<?xml version="1.0" encoding="utf-8"?>
<!-- Generator: Adobe Illustrator 18.0.0, SVG Export Plug-In . SVG Version: 6.00 Build 0)  -->
<!DOCTYPE svg PUBLIC "-//W3C//DTD SVG 1.1//EN" "http://www.w3.org/Graphics/SVG/1.1/DTD/svg11.dtd">
<svg version="1.1" id="Capa_1" xmlns="http://www.w3.org/2000/svg" xmlns:xlink="http://www.w3.org/1999/xlink" x="0px" y="0px"
	 viewBox="0 0 500 500" enable-background="new 0 0 500 500" xml:space="preserve">
<rect x="-4.1" fill="#333333" width="504.1" height="500"/>
<g>
	<g>
		<path fill="#FFFFFF" d="M329.9,381.6c0,1.4-1.1,2.5-2.5,2.5h-7.6v10.1c0,8.4-6.8,15.2-15.2,15.2c-8.4,0-15.2-6.8-15.2-15.2v-10.1
			h-80.9v10.1c0,8.4-6.8,15.2-15.2,15.2c-8.4,0-15.2-6.8-15.2-15.2v-10.1h-7.6c-1.4,0-2.5-1.1-2.5-2.5v-30.4
			c0-9.8,7.9-17.7,17.7-17.7h2.2l8.3-33.1c2.5-10,12.1-17.5,22.4-17.5h60.7c10.3,0,19.9,7.5,22.4,17.5l8.3,33.1h2.2
			c9.8,0,17.7,7.9,17.7,17.7V381.6z M193.3,346.2c-7,0-12.6,5.7-12.6,12.6s5.7,12.6,12.6,12.6c7,0,12.6-5.7,12.6-12.6
			S200.3,346.2,193.3,346.2z M289.1,333.6l-7-28.2c-0.2-0.9-1.8-2.1-2.8-2.1h-60.7c-0.9,0-2.5,1.3-2.8,2.1l-7,28.2H289.1z
			 M304.6,346.2c-7,0-12.6,5.7-12.6,12.6s5.7,12.6,12.6,12.6s12.6-5.7,12.6-12.6S311.6,346.2,304.6,346.2z"/>
	</g>
	<g>
		<g>
			<path fill="#FFFFFF" d="M234.6,228.6c-1.6,0-3.1-1-3.7-2.6c-0.8-2,0.3-4.3,2.3-5c5.4-2,10.5-5.6,10.5-7.5s-5.1-5.5-10.5-7.5
				c-2-0.8-3.1-3-2.3-5c0.7-2,3-3.1,5-2.3c2.6,1,15.6,6.2,15.6,14.8c0,8.6-13,13.9-15.6,14.8C235.5,228.5,235.1,228.6,234.6,228.6z"
				/>
		</g>
		<g>
			<path fill="#FFFFFF" d="M234.6,206.3c-0.5,0-0.9-0.1-1.4-0.2c-2.6-1-15.6-6.2-15.6-14.8c0-8.6,13-13.9,15.6-14.8
				c2-0.8,4.3,0.3,5,2.3c0.8,2-0.3,4.3-2.3,5c-5.4,2-10.5,5.6-10.5,7.5c0,2,5.7,5.7,10.5,7.5c2,0.7,3.1,3,2.3,5
				C237.7,205.3,236.2,206.3,234.6,206.3z"/>
		</g>
		<g>
			<path fill="#FFFFFF" d="M234.6,184c-1.6,0-3.1-1-3.7-2.6c-0.8-2,0.3-4.3,2.3-5c5.4-2,10.5-5.6,10.5-7.5c0-2-5.7-5.7-10.5-7.5
				c-2-0.7-3.1-3-2.3-5c0.7-2,3-3.1,5-2.3c2.6,1,15.6,6.2,15.6,14.8s-13,13.9-15.6,14.8C235.5,183.9,235.1,184,234.6,184z"/>
		</g>
		<g>
			<path fill="#FFFFFF" d="M234.6,161.7c-0.4,0-0.9-0.1-1.4-0.2c-2.6-1-15.6-6.2-15.6-14.8s13-13.9,15.6-14.8c2-0.8,4.3,0.3,5,2.3
				c0.8,2-0.3,4.3-2.3,5c-5.4,2-10.5,5.6-10.5,7.5s5.1,5.5,10.5,7.5c2,0.8,3.1,3,2.3,5C237.7,160.8,236.2,161.7,234.6,161.7z"/>
		</g>
		<g>
			<g>
				<path fill="#FFFFFF" d="M234.6,139.4c-1.6,0-3.1-1-3.7-2.6c-0.8-2,0.3-4.3,2.3-5c5.4-2,10.5-5.6,10.5-7.5c0-2-5.7-5.7-10.5-7.5
					c-2-0.7-3.1-3-2.3-5c0.7-2,3-3.1,5-2.3c2.6,1,15.6,6.2,15.6,14.8c0,8.6-13,13.9-15.6,14.8C235.5,139.4,235.1,139.4,234.6,139.4z
					"/>
			</g>
		</g>
	</g>
	<g>
		<g>
			<path fill="#FFFFFF" d="M350.3,257.6c-3,0-5.5-0.4-6.6-0.5c-2.1-0.3-3.6-2.3-3.2-4.5c0.3-2.1,2.3-3.6,4.5-3.2
				c5.7,0.9,11.9,0.2,12.8-1.4c0.9-1.6-1.7-7.3-5.4-11.7c-1.4-1.6-1.2-4.1,0.5-5.5c1.7-1.4,4.1-1.2,5.5,0.5
				c1.8,2.1,10.5,13.1,6.3,20.6C362,256.6,355.5,257.6,350.3,257.6z"/>
		</g>
		<g>
			<path fill="#FFFFFF" d="M355.4,237.7c-1.1,0-2.2-0.5-3-1.4c-1.8-2.1-10.5-13.1-6.3-20.6c4.2-7.5,18.1-5.7,20.9-5.2
				c2.1,0.3,3.6,2.3,3.2,4.5c-0.3,2.1-2.4,3.6-4.5,3.2c-5.7-0.9-11.9-0.2-12.8,1.4c-0.9,1.6,1.7,7.3,5.4,11.7
				c1.4,1.7,1.2,4.1-0.5,5.5C357.2,237.4,356.3,237.7,355.4,237.7z"/>
		</g>
		<g>
			<path fill="#FFFFFF" d="M372.3,218.8c-3,0-5.5-0.4-6.6-0.5c-2.1-0.3-3.6-2.3-3.2-4.5c0.3-2.1,2.3-3.6,4.5-3.2
				c5.7,0.9,11.9,0.2,12.8-1.4c0.9-1.6-1.7-7.3-5.4-11.7c-1.4-1.7-1.2-4.1,0.5-5.5c1.7-1.4,4.1-1.2,5.5,0.5
				c1.8,2.1,10.5,13.1,6.3,20.6C383.9,217.8,377.4,218.8,372.3,218.8z"/>
		</g>
		<g>
			<path fill="#FFFFFF" d="M377.3,198.9c-1.1,0-2.2-0.5-3-1.4c-1.8-2.1-10.5-13.1-6.3-20.6c4.2-7.5,18.1-5.7,20.9-5.2
				c2.1,0.3,3.6,2.3,3.2,4.5c-0.3,2.1-2.4,3.6-4.5,3.2c-5.7-0.9-11.9-0.2-12.8,1.4c-0.9,1.6,1.7,7.3,5.5,11.7
				c1.4,1.7,1.2,4.1-0.5,5.5C379.1,198.6,378.2,198.9,377.3,198.9z"/>
		</g>
		<g>
			<g>
				<path fill="#FFFFFF" d="M394.2,180c-3,0-5.5-0.4-6.6-0.5c-2.1-0.3-3.6-2.3-3.2-4.5c0.3-2.1,2.3-3.6,4.5-3.2
					c5.7,0.9,11.9,0.2,12.8-1.4c0.9-1.6-1.7-7.3-5.4-11.7c-1.4-1.7-1.2-4.1,0.5-5.5c1.7-1.4,4.1-1.2,5.5,0.5
					c1.8,2.1,10.5,13.1,6.3,20.6C405.8,178.9,399.3,180,394.2,180z"/>
			</g>
		</g>
	</g>
	<g>
		<g>
			<path fill="#FFFFFF" d="M145,280.1c-0.7,0-1.5-0.2-2.1-0.6c-1.8-1.2-2.3-3.6-1.2-5.4c3.1-4.8,5-10.8,3.9-12.3
				c-1.2-1.6-8-1.1-12.9,0.3c-2.1,0.6-4.3-0.5-4.9-2.6c-0.6-2.1,0.5-4.3,2.6-4.9c2.7-0.8,16.2-4.4,21.4,2.4c5.2,6.9-2,18.9-3.5,21.2
				C147.6,279.5,146.3,280.1,145,280.1z"/>
		</g>
		<g>
			<path fill="#FFFFFF" d="M122,263.8c-4.1,0-8.2-0.9-10.7-4.1c-5.2-6.9,2-18.9,3.5-21.2c1.2-1.8,3.6-2.3,5.4-1.2
				c1.8,1.2,2.4,3.6,1.2,5.4c-3.1,4.8-5,10.8-3.9,12.3c1.1,1.5,7.4,1.3,12.9-0.4c2.1-0.6,4.3,0.6,4.9,2.6c0.6,2.1-0.5,4.2-2.6,4.9
				C131.3,262.6,126.7,263.8,122,263.8z"/>
		</g>
		<g>
			<path fill="#FFFFFF" d="M118.2,244.5c-0.7,0-1.5-0.2-2.1-0.6c-1.8-1.2-2.3-3.6-1.2-5.4c3.1-4.8,5-10.8,3.9-12.3
				c-1.2-1.6-8-1.1-12.9,0.3c-2.1,0.6-4.3-0.5-4.9-2.6c-0.6-2.1,0.5-4.3,2.6-4.9c2.7-0.8,16.2-4.4,21.4,2.4c5.2,6.9-2,18.9-3.5,21.2
				C120.7,243.9,119.5,244.5,118.2,244.5z"/>
		</g>
		<g>
			<path fill="#FFFFFF" d="M95.1,228.2c-4.1,0-8.2-0.9-10.7-4.1c-5.2-6.9,2-18.9,3.5-21.2c1.2-1.8,3.6-2.4,5.4-1.2
				c1.8,1.2,2.4,3.6,1.2,5.4c-3.1,4.8-5,10.8-3.9,12.3c1.1,1.5,7.4,1.3,12.9-0.4c2.1-0.6,4.3,0.6,4.9,2.6c0.6,2.1-0.5,4.2-2.6,4.9
				C104.4,227,99.9,228.2,95.1,228.2z"/>
		</g>
		<g>
			<g>
				<path fill="#FFFFFF" d="M91.3,208.9c-0.7,0-1.5-0.2-2.1-0.6c-1.8-1.2-2.3-3.6-1.2-5.4c3.1-4.8,5-10.8,3.9-12.3
					c-1.2-1.6-8-1.1-12.9,0.4c-2.1,0.6-4.3-0.5-4.9-2.6c-0.6-2.1,0.5-4.3,2.6-4.9c2.7-0.8,16.2-4.5,21.4,2.4
					c5.2,6.9-2,18.9-3.5,21.2C93.8,208.3,92.6,208.9,91.3,208.9z"/>
			</g>
		</g>
	</g>
</g>
</svg>
