<?xml version="1.0" encoding="utf-8"?>
<!-- Generator: Adobe Illustrator 18.0.0, SVG Export Plug-In . SVG Version: 6.00 Build 0)  -->
<!DOCTYPE svg PUBLIC "-//W3C//DTD SVG 1.1//EN" "http://www.w3.org/Graphics/SVG/1.1/DTD/svg11.dtd">
<svg version="1.1" id="Capa_1" xmlns="http://www.w3.org/2000/svg" xmlns:xlink="http://www.w3.org/1999/xlink" x="0px" y="0px"
	 viewBox="0 0 595.3 841.9" enable-background="new 0 0 595.3 841.9" xml:space="preserve">
<rect x="577" y="222.7" fill="#FFFFFF" width="1.3" height="0"/>
<rect x="45.7" y="0.5" fill="#3C3C3B" width="516.6" height="842.4"/>
<rect x="148.8" y="189" fill="none" width="342" height="60.5"/>
<text transform="matrix(1 0 0 1 148.8302 217.9459)" fill="#FFFFFF" font-family="'AndaleMono'" font-size="42" letter-spacing="6">MOBILOMICS</text>
<text transform="matrix(1 0 0 1 83 536)" fill="#FFFFFF" font-family="'FontAwesome'" font-size="18"></text>
<path fill="none" stroke="#FFFFFF" stroke-width="2" stroke-linecap="round" stroke-linejoin="round" stroke-miterlimit="10" d="
	M276,78.5c0,5.6-10.1,17.6-10.1,17.6s-10.1-12-10.1-17.6s4.5-10.1,10.1-10.1S276,73,276,78.5z"/>
<circle fill="none" stroke="#FFFFFF" stroke-width="2" stroke-linecap="round" stroke-linejoin="round" stroke-miterlimit="10" cx="265.9" cy="78.4" r="3.8"/>
<g>
	<path fill="none" stroke="#FFFFFF" stroke-width="2" stroke-linecap="round" stroke-linejoin="round" stroke-miterlimit="10" d="
		M352.1,123.2c0,5.6-10.1,17.6-10.1,17.6s-10.1-12-10.1-17.6c0-5.6,4.5-10.1,10.1-10.1C347.6,113.1,352.1,117.6,352.1,123.2z"/>
	
		<circle fill="none" stroke="#FFFFFF" stroke-width="2" stroke-linecap="round" stroke-linejoin="round" stroke-miterlimit="10" cx="342" cy="123.1" r="3.8"/>
</g>
<g>
	<path fill="none" stroke="#FFFFFF" stroke-width="2" stroke-linecap="round" stroke-linejoin="round" stroke-miterlimit="10" d="
		M266.2,96.8c0,0,18.2,0,35.9,0s17.7,22,0,22h-10.9"/>
	<path fill="none" stroke="#FFFFFF" stroke-width="2" stroke-linecap="round" stroke-linejoin="round" stroke-miterlimit="10" d="
		M341.2,140.8c0,0-44.5,0-62.2,0c-17.7,0-17.7-22,0-22l14,0"/>
</g>
<g>
	<g>
		<path fill="#FFFFFF" d="M80.8,830.7c-0.4,0-0.8-0.2-0.9-0.7c-0.2-0.5,0.1-1.1,0.6-1.3c1.4-0.5,2.7-1.4,2.7-1.9s-1.3-1.4-2.7-1.9
			c-0.5-0.2-0.8-0.8-0.6-1.3s0.8-0.8,1.3-0.6c0.7,0.2,4,1.6,4,3.8s-3.3,3.5-4,3.8C81,830.7,80.9,830.7,80.8,830.7z"/>
	</g>
	<g>
		<path fill="#FFFFFF" d="M80.8,825c-0.1,0-0.2,0-0.3-0.1c-0.7-0.2-4-1.6-4-3.8s3.3-3.5,4-3.8c0.5-0.2,1.1,0.1,1.3,0.6
			c0.2,0.5-0.1,1.1-0.6,1.3c-1.4,0.5-2.7,1.4-2.7,1.9s1.3,1.4,2.7,1.9c0.5,0.2,0.8,0.8,0.6,1.3C81.6,824.8,81.2,825,80.8,825z"/>
	</g>
	<g>
		<path fill="#FFFFFF" d="M80.8,819.3c-0.4,0-0.8-0.2-0.9-0.7c-0.2-0.5,0.1-1.1,0.6-1.3c1.4-0.5,2.7-1.4,2.7-1.9s-1.3-1.4-2.7-1.9
			c-0.5-0.2-0.8-0.8-0.6-1.3c0.2-0.5,0.8-0.8,1.3-0.6c0.7,0.2,4,1.6,4,3.8s-3.3,3.5-4,3.8C81,819.3,80.9,819.3,80.8,819.3z"/>
	</g>
	<g>
		<path fill="#FFFFFF" d="M80.8,813.7c-0.1,0-0.2,0-0.3-0.1c-0.7-0.2-4-1.6-4-3.8c0-2.2,3.3-3.5,4-3.8c0.5-0.2,1.1,0.1,1.3,0.6
			c0.2,0.5-0.1,1.1-0.6,1.3c-1.4,0.5-2.7,1.4-2.7,1.9c0,0.5,1.5,1.5,2.7,1.9c0.5,0.2,0.8,0.8,0.6,1.3
			C81.6,813.4,81.2,813.7,80.8,813.7z"/>
	</g>
	<g>
		<g>
			<path fill="#FFFFFF" d="M80.8,808c-0.4,0-0.8-0.2-0.9-0.7c-0.2-0.5,0.1-1.1,0.6-1.3c1.4-0.5,2.7-1.4,2.7-1.9s-1.3-1.4-2.7-1.9
				c-0.5-0.2-0.8-0.8-0.6-1.3c0.2-0.5,0.8-0.8,1.3-0.6c0.7,0.2,4,1.6,4,3.8s-3.3,3.5-4,3.8C81,807.9,80.9,808,80.8,808z"/>
		</g>
		<g>
			<path fill="#FFFFFF" d="M80.8,802.3c-0.1,0-0.2,0-0.3-0.1c-0.7-0.2-4-1.6-4-3.8s3.3-3.5,4-3.8c0.5-0.2,1.1,0.1,1.3,0.6
				c0.2,0.5-0.1,1.1-0.6,1.3c-1.4,0.5-2.7,1.4-2.7,1.9s1.3,1.4,2.7,1.9c0.5,0.2,0.8,0.8,0.6,1.3C81.6,802,81.2,802.3,80.8,802.3z"/>
		</g>
		<g>
			<path fill="#FFFFFF" d="M80.8,796.6c-0.4,0-0.8-0.2-0.9-0.7c-0.2-0.5,0.1-1.1,0.6-1.3c1.4-0.5,2.7-1.4,2.7-1.9
				c0-0.5-1.5-1.5-2.7-1.9c-0.5-0.2-0.8-0.8-0.6-1.3c0.2-0.5,0.8-0.8,1.3-0.6c0.7,0.2,4,1.6,4,3.8c0,2.2-3.3,3.5-4,3.8
				C81,796.5,80.9,796.6,80.8,796.6z"/>
		</g>
		<g>
			<path fill="#FFFFFF" d="M80.8,790.9c-0.1,0-0.2,0-0.3-0.1c-0.7-0.2-4-1.6-4-3.8s3.3-3.5,4-3.8c0.5-0.2,1.1,0.1,1.3,0.6
				c0.2,0.5-0.1,1.1-0.6,1.3c-1.4,0.5-2.7,1.4-2.7,1.9s1.3,1.4,2.7,1.9c0.5,0.2,0.8,0.8,0.6,1.3C81.6,790.6,81.2,790.9,80.8,790.9z"
				/>
		</g>
	</g>
</g>
<g>
	<path fill="none" stroke="#FFFFFF" stroke-width="2" stroke-linecap="round" stroke-linejoin="round" stroke-miterlimit="10" d="
		M307.1,76.4c0,0,2.7,2.3,2.1,3.8s-4.1,1.5-4.1,1.5"/>
	<path fill="none" stroke="#FFFFFF" stroke-width="2" stroke-linecap="round" stroke-linejoin="round" stroke-miterlimit="10" d="
		M307.1,76.4c0,0-2.7-2.3-2.1-3.8c0.6-1.5,4.1-1.5,4.1-1.5"/>
	<path fill="none" stroke="#FFFFFF" stroke-width="2" stroke-linecap="round" stroke-linejoin="round" stroke-miterlimit="10" d="
		M311.1,65.8c0,0,2.7,2.3,2.1,3.8c-0.6,1.5-4.1,1.5-4.1,1.5"/>
	<path fill="none" stroke="#FFFFFF" stroke-width="2" stroke-linecap="round" stroke-linejoin="round" stroke-miterlimit="10" d="
		M311.1,65.8c0,0-2.7-2.3-2.1-3.8s4.1-1.5,4.1-1.5"/>
	<g>
		<path fill="none" stroke="#FFFFFF" stroke-width="2" stroke-linecap="round" stroke-linejoin="round" stroke-miterlimit="10" d="
			M315.2,55.1c0,0,2.7,2.3,2.1,3.8s-4.1,1.5-4.1,1.5"/>
	</g>
</g>
<g>
	<path fill="none" stroke="#FFFFFF" stroke-width="2" stroke-linecap="round" stroke-linejoin="round" stroke-miterlimit="10" d="
		M326.8,102.4c0,0,2.4,2.8,1.6,4.2c-0.8,1.4-4.4,0.7-4.4,0.7"/>
	<path fill="none" stroke="#FFFFFF" stroke-width="2" stroke-linecap="round" stroke-linejoin="round" stroke-miterlimit="10" d="
		M326.8,102.4c0,0-2.4-2.8-1.6-4.2c0.8-1.4,4.4-0.7,4.4-0.7"/>
	<path fill="none" stroke="#FFFFFF" stroke-width="2" stroke-linecap="round" stroke-linejoin="round" stroke-miterlimit="10" d="
		M332.5,92.5c0,0,2.4,2.8,1.6,4.2c-0.8,1.4-4.4,0.7-4.4,0.7"/>
	<path fill="none" stroke="#FFFFFF" stroke-width="2" stroke-linecap="round" stroke-linejoin="round" stroke-miterlimit="10" d="
		M332.5,92.5c0,0-2.4-2.8-1.6-4.2c0.8-1.4,4.4-0.7,4.4-0.7"/>
	<g>
		<path fill="none" stroke="#FFFFFF" stroke-width="2" stroke-linecap="round" stroke-linejoin="round" stroke-miterlimit="10" d="
			M338.2,82.7c0,0,2.4,2.8,1.6,4.2s-4.4,0.7-4.4,0.7"/>
	</g>
</g>
<g>
	<path fill="none" stroke="#FFFFFF" stroke-width="2" stroke-linecap="round" stroke-linejoin="round" stroke-miterlimit="10" d="
		M250.7,118c0,0,3.5-0.3,4.2,1.1c0.7,1.5-1.8,4-1.8,4"/>
	<path fill="none" stroke="#FFFFFF" stroke-width="2" stroke-linecap="round" stroke-linejoin="round" stroke-miterlimit="10" d="
		M250.7,118c0,0-3.5,0.3-4.2-1.1c-0.7-1.5,1.8-4,1.8-4"/>
	<path fill="none" stroke="#FFFFFF" stroke-width="2" stroke-linecap="round" stroke-linejoin="round" stroke-miterlimit="10" d="
		M245.8,107.7c0,0,3.5-0.3,4.2,1.1c0.7,1.5-1.8,4-1.8,4"/>
	<path fill="none" stroke="#FFFFFF" stroke-width="2" stroke-linecap="round" stroke-linejoin="round" stroke-miterlimit="10" d="
		M245.8,107.7c0,0-3.5,0.3-4.2-1.1c-0.7-1.5,1.8-4,1.8-4"/>
	<g>
		<path fill="none" stroke="#FFFFFF" stroke-width="2" stroke-linecap="round" stroke-linejoin="round" stroke-miterlimit="10" d="
			M240.8,97.4c0,0,3.5-0.3,4.2,1.1c0.7,1.5-1.8,4-1.8,4"/>
	</g>
</g>
<g>
	<path fill="none" stroke="#FFFFFF" stroke-width="2" stroke-linecap="round" stroke-linejoin="round" stroke-miterlimit="10" d="
		M362,140.2c0,0,2.1,2.8,1.3,4.2s-4.3,0.6-4.3,0.6"/>
	<path fill="none" stroke="#FFFFFF" stroke-width="2" stroke-linecap="round" stroke-linejoin="round" stroke-miterlimit="10" d="
		M362,140.2c0,0-2.1-2.8-1.3-4.2c0.9-1.4,4.3-0.6,4.3-0.6"/>
	<path fill="none" stroke="#FFFFFF" stroke-width="2" stroke-linecap="round" stroke-linejoin="round" stroke-miterlimit="10" d="
		M368.2,130.6c0,0,2.1,2.8,1.3,4.2s-4.3,0.6-4.3,0.6"/>
	<path fill="none" stroke="#FFFFFF" stroke-width="2" stroke-linecap="round" stroke-linejoin="round" stroke-miterlimit="10" d="
		M368.2,130.6c0,0-2.1-2.8-1.3-4.2s4.3-0.6,4.3-0.6"/>
	<g>
		<path fill="none" stroke="#FFFFFF" stroke-width="2" stroke-linecap="round" stroke-linejoin="round" stroke-miterlimit="10" d="
			M374.4,121c0,0,2.1,2.8,1.3,4.2s-4.3,0.6-4.3,0.6"/>
	</g>
</g>
<g>
	<text transform="matrix(1 0 0 1 292.9256 456.8597)" fill="#FFFFFF" font-family="'FontAwesome'" font-size="36.2139"></text>
	<g>
		<path fill="none" stroke="#FFFFFF" stroke-width="2" stroke-linecap="round" stroke-linejoin="round" stroke-miterlimit="10" d="
			M309.9,407.8c0,0,3.3,1.2,3.3,2.8s-3.3,2.8-3.3,2.8"/>
		<path fill="none" stroke="#FFFFFF" stroke-width="2" stroke-linecap="round" stroke-linejoin="round" stroke-miterlimit="10" d="
			M309.9,407.8c0,0-3.3-1.2-3.3-2.8s3.3-2.8,3.3-2.8"/>
		<path fill="none" stroke="#FFFFFF" stroke-width="2" stroke-linecap="round" stroke-linejoin="round" stroke-miterlimit="10" d="
			M309.9,396.4c0,0,3.3,1.2,3.3,2.8c0,1.6-3.3,2.8-3.3,2.8"/>
		<path fill="none" stroke="#FFFFFF" stroke-width="2" stroke-linecap="round" stroke-linejoin="round" stroke-miterlimit="10" d="
			M309.9,396.4c0,0-3.3-1.2-3.3-2.8s3.3-2.8,3.3-2.8"/>
		<g>
			<path fill="none" stroke="#FFFFFF" stroke-width="2" stroke-linecap="round" stroke-linejoin="round" stroke-miterlimit="10" d="
				M309.9,385c0,0,3.3,1.2,3.3,2.8c0,1.6-3.3,2.8-3.3,2.8"/>
		</g>
	</g>
	<g>
		<path fill="none" stroke="#FFFFFF" stroke-width="2" stroke-linecap="round" stroke-linejoin="round" stroke-miterlimit="10" d="
			M340.8,415.9c0,0,2.3,2.7,1.5,4.1s-4.3,0.8-4.3,0.8"/>
		<path fill="none" stroke="#FFFFFF" stroke-width="2" stroke-linecap="round" stroke-linejoin="round" stroke-miterlimit="10" d="
			M340.8,415.9c0,0-2.3-2.7-1.5-4.1c0.8-1.4,4.3-0.8,4.3-0.8"/>
		<path fill="none" stroke="#FFFFFF" stroke-width="2" stroke-linecap="round" stroke-linejoin="round" stroke-miterlimit="10" d="
			M346.4,405.9c0,0,2.3,2.7,1.5,4.1c-0.8,1.4-4.3,0.8-4.3,0.8"/>
		<path fill="none" stroke="#FFFFFF" stroke-width="2" stroke-linecap="round" stroke-linejoin="round" stroke-miterlimit="10" d="
			M346.4,405.9c0,0-2.3-2.7-1.5-4.1c0.8-1.4,4.3-0.8,4.3-0.8"/>
		<g>
			<path fill="none" stroke="#FFFFFF" stroke-width="2" stroke-linecap="round" stroke-linejoin="round" stroke-miterlimit="10" d="
				M352,396c0,0,2.3,2.7,1.5,4.1s-4.3,0.8-4.3,0.8"/>
		</g>
	</g>
	<g>
		<path fill="none" stroke="#FFFFFF" stroke-width="2" stroke-linecap="round" stroke-linejoin="round" stroke-miterlimit="10" d="
			M283.6,422.1c0,0,3.4-1,4.4,0.3c1,1.3-0.9,4.3-0.9,4.3"/>
		<path fill="none" stroke="#FFFFFF" stroke-width="2" stroke-linecap="round" stroke-linejoin="round" stroke-miterlimit="10" d="
			M283.6,422.1c0,0-3.4,1-4.4-0.3c-1-1.3,0.9-4.3,0.9-4.3"/>
		<path fill="none" stroke="#FFFFFF" stroke-width="2" stroke-linecap="round" stroke-linejoin="round" stroke-miterlimit="10" d="
			M276.8,413c0,0,3.4-1,4.4,0.3s-0.9,4.3-0.9,4.3"/>
		<path fill="none" stroke="#FFFFFF" stroke-width="2" stroke-linecap="round" stroke-linejoin="round" stroke-miterlimit="10" d="
			M276.8,413c0,0-3.4,1-4.4-0.3c-1-1.3,0.9-4.3,0.9-4.3"/>
		<g>
			<path fill="none" stroke="#FFFFFF" stroke-width="2" stroke-linecap="round" stroke-linejoin="round" stroke-miterlimit="10" d="
				M269.9,403.9c0,0,3.4-1,4.4,0.3c1,1.3-0.9,4.3-0.9,4.3"/>
		</g>
	</g>
</g>
<g>
	<path fill="none" stroke="#FFFFFF" stroke-width="2" stroke-linecap="round" stroke-linejoin="round" stroke-miterlimit="10" d="
		M77.4,758.4c0,0,3.3,1.2,3.3,2.8s-3.3,2.8-3.3,2.8"/>
	<path fill="none" stroke="#FFFFFF" stroke-width="2" stroke-linecap="round" stroke-linejoin="round" stroke-miterlimit="10" d="
		M77.4,758.4c0,0-3.3-1.2-3.3-2.8s3.3-2.8,3.3-2.8"/>
	<path fill="none" stroke="#FFFFFF" stroke-width="2" stroke-linecap="round" stroke-linejoin="round" stroke-miterlimit="10" d="
		M77.4,747c0,0,3.3,1.2,3.3,2.8s-3.3,2.8-3.3,2.8"/>
	<path fill="none" stroke="#FFFFFF" stroke-width="2" stroke-linecap="round" stroke-linejoin="round" stroke-miterlimit="10" d="
		M77.4,747c0,0-3.3-1.2-3.3-2.8s3.3-2.8,3.3-2.8"/>
	<g>
		<path fill="none" stroke="#FFFFFF" stroke-width="2" stroke-linecap="round" stroke-linejoin="round" stroke-miterlimit="10" d="
			M77.4,735.6c0,0,3.3,1.2,3.3,2.8s-3.3,2.8-3.3,2.8"/>
		<path fill="none" stroke="#FFFFFF" stroke-width="2" stroke-linecap="round" stroke-linejoin="round" stroke-miterlimit="10" d="
			M77.4,735.6c0,0-3.3-1.2-3.3-2.8s3.3-2.8,3.3-2.8"/>
		<path fill="none" stroke="#FFFFFF" stroke-width="2" stroke-linecap="round" stroke-linejoin="round" stroke-miterlimit="10" d="
			M77.4,724.2c0,0,3.3,1.2,3.3,2.8c0,1.6-3.3,2.8-3.3,2.8"/>
		<path fill="none" stroke="#FFFFFF" stroke-width="2" stroke-linecap="round" stroke-linejoin="round" stroke-miterlimit="10" d="
			M77.4,724.2c0,0-3.3-1.2-3.3-2.8s3.3-2.8,3.3-2.8"/>
	</g>
</g>
<g>
	
		<circle fill="none" stroke="#FFFFFF" stroke-width="2" stroke-linecap="round" stroke-linejoin="round" stroke-miterlimit="10" cx="451.1" cy="445.2" r="10.9"/>
	
		<circle fill="none" stroke="#FFFFFF" stroke-width="2" stroke-linecap="round" stroke-linejoin="round" stroke-miterlimit="10" cx="401.2" cy="445.2" r="10.9"/>
	
		<line fill="none" stroke="#FFFFFF" stroke-width="2" stroke-linecap="round" stroke-linejoin="round" stroke-miterlimit="10" x1="408.7" y1="437.3" x2="415.3" y2="428.1"/>
	
		<line fill="none" stroke="#FFFFFF" stroke-width="2" stroke-linecap="round" stroke-linejoin="round" stroke-miterlimit="10" x1="443.6" y1="437.3" x2="437" y2="428.1"/>
	<g>
		
			<circle fill="none" stroke="#FFFFFF" stroke-width="2" stroke-linecap="round" stroke-linejoin="round" stroke-miterlimit="10" cx="426.2" cy="413.7" r="17.5"/>
		<path fill="none" stroke="#FFFFFF" stroke-width="2" stroke-linecap="round" stroke-linejoin="round" stroke-miterlimit="10" d="
			M421.9,419.8c0.6,1.8,2.3,3.1,4.2,3.1s3.6-1.3,4.2-3.1"/>
		<circle fill="#FFFFFF" cx="417.7" cy="412.9" r="2.6"/>
		<circle fill="#FFFFFF" cx="434.6" cy="412.9" r="2.6"/>
	</g>
</g>
<g>
	<circle fill="#FFFFFF" cx="532" cy="447" r="9.8"/>
	<circle fill="#FFFFFF" cx="486.9" cy="447" r="9.8"/>
	
		<line fill="none" stroke="#FFFFFF" stroke-width="2" stroke-linecap="round" stroke-linejoin="round" stroke-miterlimit="10" x1="492" y1="440.1" x2="498.6" y2="431"/>
	
		<line fill="none" stroke="#FFFFFF" stroke-width="2" stroke-linecap="round" stroke-linejoin="round" stroke-miterlimit="10" x1="526.9" y1="440.1" x2="520.3" y2="431"/>
	<path fill="#FFFFFF" d="M509.4,402.6c-9.4,0-17,7.6-17,17c0,9.4,7.6,17,17,17c9.4,0,17-7.6,17-17
		C526.4,410.2,518.8,402.6,509.4,402.6z M501,421.3c-1.4,0-2.6-1.2-2.6-2.6c0-1.4,1.2-2.6,2.6-2.6c1.4,0,2.6,1.2,2.6,2.6
		C503.6,420.1,502.4,421.3,501,421.3z M514.6,425.9c-0.8,2.3-2.9,3.8-5.2,3.8c-2.3,0-4.4-1.5-5.2-3.8c-0.2-0.5,0.1-1.1,0.6-1.3
		c0.5-0.2,1.1,0.1,1.3,0.6c0.5,1.5,1.8,2.5,3.3,2.5c1.5,0,2.8-1,3.3-2.5c0.2-0.5,0.8-0.8,1.3-0.6
		C514.5,424.9,514.8,425.4,514.6,425.9z M517.9,421.3c-1.4,0-2.6-1.2-2.6-2.6c0-1.4,1.2-2.6,2.6-2.6s2.6,1.2,2.6,2.6
		C520.5,420.1,519.3,421.3,517.9,421.3z"/>
</g>
<g>
	<g>
		<path fill="#FFFFFF" d="M176.4,446.2c-1.1,0-2.2,0-3.3,0c0,1.1,0,2.2,0,3.3c0,1.4-0.9,2.5-2.3,2.7c-2.2,0.4-3.5-1.2-3.5-3
			c0-1,0-2,0-3c-7.1,0-14.2,0-21.4,0c0,1,0,1.9,0,2.8c0,1.8-0.8,3-2.7,3.3c-1.5,0.2-3.1-1.1-3.1-2.7c0-1.1,0-2.3,0-3.5
			c-1.1,0-2.2,0-3.3,0c0-0.3,0-0.5,0-0.7c0-6.6,0-13.1,0-19.7c0-1.1,0.3-2.2,0.4-3.3c0.1-1,0.2-2,0.4-2.9c0.2-1.3,0.4-2.6,0.5-3.9
			c0.1-1,0.2-2,0.4-3c0.2-1.5,0.3-3,1.3-4.3c0.7-0.9,1.6-1.5,2.5-1.9c1.6-0.7,3.3-1.2,4.9-1.6c1.6-0.4,3.2-0.6,4.8-0.9
			c2-0.4,4.1-0.4,6.1-0.3c1.3,0,2.5,0.2,3.8,0.4c1.6,0.3,3.2,0.5,4.8,0.9c2.2,0.5,4.3,1.2,6.1,2.7c1.1,0.9,1.6,2,1.8,3.4
			c0.2,1.3,0.4,2.6,0.5,4c0.1,1,0.2,2,0.3,3c0.1,1,0.3,2,0.4,3c0.1,1,0.3,1.9,0.4,2.9c0.5,7.3,0.1,14.6,0.2,21.9
			C176.4,446,176.4,446.1,176.4,446.2z M156.5,427.4c1.6,0,3.2,0,4.8,0c3.2,0,6.4,0,9.6,0c1.7,0,2.1-0.7,1.9-2.2
			c-0.1-0.7-0.2-1.5-0.3-2.2c-0.2-1.2-0.3-2.3-0.5-3.5c-0.2-1.2-0.3-2.4-0.5-3.6c-0.1-0.7-0.1-1.5-0.4-2.2c-0.4-1-1-1.4-2.4-1.4
			c-5.2,0-10.4,0-15.6,0c-3,0-6,0-9,0c-1.5,0-2.2,0.3-2.5,2.1c-0.1,0.8-0.2,1.6-0.3,2.4c-0.2,1.5-0.4,2.9-0.7,4.4
			c-0.2,1.3-0.3,2.6-0.6,3.8c-0.3,1.5,0.4,2.3,1.9,2.3C146.9,427.4,151.7,427.4,156.5,427.4z M156.5,410c2.7,0,5.4,0,8.1,0
			c0.8,0,1.3-0.5,1.3-1.2c0-0.8-0.4-1.3-1.2-1.3c-5.5,0-10.9,0-16.4,0c-0.3,0-0.7,0.2-0.9,0.4c-0.4,0.4-0.3,1-0.1,1.4
			c0.2,0.5,0.7,0.7,1.2,0.7C151.2,410,153.9,410,156.5,410z M140.2,437c-0.2,1.6,1.3,2.7,2.6,2.8c1.6,0.1,3-1.4,2.9-2.8
			c-0.1-1.6-1.2-2.7-2.8-2.8C141.4,434.2,140,435.6,140.2,437z M170.1,439.8c1.5,0.2,2.8-1.2,2.8-2.7c0-1.6-1.3-2.9-2.7-2.8
			c-1.7,0-2.8,1.2-2.9,2.9C167.3,438.4,168.7,440,170.1,439.8z"/>
	</g>
	<text transform="matrix(1 0 0 1 185.6962 447.4683)" fill="#FFFFFF" font-family="'FontAwesome'" font-size="26.116"></text>
	<text transform="matrix(1 0 0 1 206.1962 447.4683)" fill="#FFFFFF" font-family="'FontAwesome'" font-size="26.116"></text>
	<text transform="matrix(1 0 0 1 226.6962 447.4683)" fill="#FFFFFF" font-family="'FontAwesome'" font-size="26.116"></text>
</g>
<circle fill="none" stroke="#FFFFFF" stroke-width="2" stroke-linecap="round" stroke-linejoin="round" stroke-miterlimit="10" cx="286.3" cy="54.2" r="6.6"/>
<circle fill="none" stroke="#FFFFFF" stroke-width="2" stroke-linecap="round" stroke-linejoin="round" stroke-miterlimit="10" cx="234.1" cy="67.2" r="7.4"/>
<circle fill="none" stroke="#FFFFFF" stroke-width="2" stroke-linecap="round" stroke-linejoin="round" stroke-miterlimit="10" cx="229.5" cy="91.2" r="2.8"/>
<circle fill="none" stroke="#FFFFFF" stroke-width="2" stroke-linecap="round" stroke-linejoin="round" stroke-miterlimit="10" cx="359.1" cy="99.8" r="3.8"/>
<circle fill="none" stroke="#FFFFFF" stroke-width="2" stroke-linecap="round" stroke-linejoin="round" stroke-miterlimit="10" cx="360.6" cy="60.8" r="5.7"/>
<circle fill="none" stroke="#FFFFFF" stroke-width="2" stroke-linecap="round" stroke-linejoin="round" stroke-miterlimit="10" cx="328.5" cy="74.6" r="3.8"/>
<circle fill="none" stroke="#FFFFFF" stroke-width="2" stroke-linecap="round" stroke-linejoin="round" stroke-miterlimit="10" cx="247.8" cy="144.3" r="4.1"/>
</svg>
